<?xml version="1.0" encoding="UTF-8" standalone="no"?>
<!DOCTYPE svg PUBLIC "-//W3C//DTD SVG 1.1//EN"
 "http://www.w3.org/Graphics/SVG/1.1/DTD/svg11.dtd">
<!-- Generated by graphviz version 2.43.0 (0)
 -->
<!-- Title: api.h Pages: 1 -->
<svg width="262pt" height="137pt"
 viewBox="0.00 0.00 261.50 137.00" xmlns="http://www.w3.org/2000/svg" xmlns:xlink="http://www.w3.org/1999/xlink">
<g id="graph0" class="graph" transform="scale(1 1) rotate(0) translate(4 133)">
<title>api.h</title>
<!-- Node1 -->
<g id="Node000001" class="node">
<title>Node1</title>
<g id="a_Node000001"><a xlink:title=" ">
<polygon fill="#999999" stroke="#666666" points="149.5,-129 108.5,-129 108.5,-110 149.5,-110 149.5,-129"/>
<text text-anchor="middle" x="129" y="-117" font-family="Helvetica,sans-Serif" font-size="10.00">api.h</text>
</a>
</g>
</g>
<!-- Node2 -->
<g id="Node000002" class="node">
<title>Node2</title>
<g id="a_Node000002"><a xlink:href="Dekoder__Opak_8h.html" target="_top" xlink:title=" ">
<polygon fill="white" stroke="#666666" points="123.5,-74 26.5,-74 26.5,-55 123.5,-55 123.5,-74"/>
<text text-anchor="middle" x="75" y="-62" font-family="Helvetica,sans-Serif" font-size="10.00">Dekoder_Opak.h</text>
</a>
</g>
</g>
<!-- Node1&#45;&gt;Node2 -->
<g id="edge1_Node000001_Node000002" class="edge">
<title>Node1&#45;&gt;Node2</title>
<g id="a_edge1_Node000001_Node000002"><a xlink:title=" ">
<path fill="none" stroke="#63b8ff" d="M112.72,-102.52C103.2,-93.18 91.56,-81.75 83.75,-74.09"/>
<polygon fill="#63b8ff" stroke="#63b8ff" points="110.49,-105.24 120.08,-109.75 115.4,-100.25 110.49,-105.24"/>
</a>
</g>
</g>
<!-- Node4 -->
<g id="Node000004" class="node">
<title>Node4</title>
<g id="a_Node000004"><a xlink:href="Koder__Opak_8h.html" target="_top" xlink:title=" ">
<polygon fill="white" stroke="#666666" points="233,-74 149,-74 149,-55 233,-55 233,-74"/>
<text text-anchor="middle" x="191" y="-62" font-family="Helvetica,sans-Serif" font-size="10.00">Koder_Opak.h</text>
</a>
</g>
</g>
<!-- Node1&#45;&gt;Node4 -->
<g id="edge3_Node000001_Node000004" class="edge">
<title>Node1&#45;&gt;Node4</title>
<g id="a_edge3_Node000001_Node000004"><a xlink:title=" ">
<path fill="none" stroke="#63b8ff" d="M146.75,-103.32C157.81,-93.87 171.63,-82.06 180.86,-74.17"/>
<polygon fill="#63b8ff" stroke="#63b8ff" points="144.29,-100.83 138.96,-109.98 148.84,-106.15 144.29,-100.83"/>
</a>
</g>
</g>
<!-- Node3 -->
<g id="Node000003" class="node">
<title>Node3</title>
<g id="a_Node000003"><a xlink:href="Dekoder__Opak__impl_8h.html" target="_top" xlink:title=" ">
<polygon fill="white" stroke="#666666" points="124,-19 0,-19 0,0 124,0 124,-19"/>
<text text-anchor="middle" x="62" y="-7" font-family="Helvetica,sans-Serif" font-size="10.00">Dekoder_Opak_impl.h</text>
</a>
</g>
</g>
<!-- Node2&#45;&gt;Node3 -->
<g id="edge2_Node000002_Node000003" class="edge">
<title>Node2&#45;&gt;Node3</title>
<g id="a_edge2_Node000002_Node000003"><a xlink:title=" ">
<path fill="none" stroke="#63b8ff" d="M70.45,-44.95C68.29,-36.15 65.82,-26.06 64.11,-19.09"/>
<polygon fill="#63b8ff" stroke="#63b8ff" points="67.07,-45.87 72.85,-54.75 73.87,-44.2 67.07,-45.87"/>
</a>
</g>
</g>
<!-- Node5 -->
<g id="Node000005" class="node">
<title>Node5</title>
<g id="a_Node000005"><a xlink:href="Koder__Opak__impl_8h.html" target="_top" xlink:title=" ">
<polygon fill="white" stroke="#666666" points="253.5,-19 142.5,-19 142.5,0 253.5,0 253.5,-19"/>
<text text-anchor="middle" x="198" y="-7" font-family="Helvetica,sans-Serif" font-size="10.00">Koder_Opak_impl.h</text>
</a>
</g>
</g>
<!-- Node4&#45;&gt;Node5 -->
<g id="edge4_Node000004_Node000005" class="edge">
<title>Node4&#45;&gt;Node5</title>
<g id="a_edge4_Node000004_Node000005"><a xlink:title=" ">
<path fill="none" stroke="#63b8ff" d="M193.49,-44.66C194.64,-35.93 195.95,-25.99 196.87,-19.09"/>
<polygon fill="#63b8ff" stroke="#63b8ff" points="190,-44.38 192.16,-54.75 196.94,-45.29 190,-44.38"/>
</a>
</g>
</g>
</g>
</svg>
