<?xml version="1.0" encoding="UTF-8" standalone="no"?>
<!DOCTYPE svg PUBLIC "-//W3C//DTD SVG 1.1//EN"
 "http://www.w3.org/Graphics/SVG/1.1/DTD/svg11.dtd">
<!-- Generated by graphviz version 2.43.0 (0)
 -->
<!-- Title: Koder_Opak.h Pages: 1 -->
<svg width="304pt" height="137pt"
 viewBox="0.00 0.00 304.00 137.00" xmlns="http://www.w3.org/2000/svg" xmlns:xlink="http://www.w3.org/1999/xlink">
<g id="graph0" class="graph" transform="scale(1 1) rotate(0) translate(4 133)">
<title>Koder_Opak.h</title>
<!-- Node1 -->
<g id="Node000001" class="node">
<title>Node1</title>
<g id="a_Node000001"><a xlink:title=" ">
<polygon fill="#999999" stroke="#666666" points="181.5,-129 97.5,-129 97.5,-110 181.5,-110 181.5,-129"/>
<text text-anchor="middle" x="139.5" y="-117" font-family="Helvetica,sans-Serif" font-size="10.00">Koder_Opak.h</text>
</a>
</g>
</g>
<!-- Node2 -->
<g id="Node000002" class="node">
<title>Node2</title>
<g id="a_Node000002"><a xlink:href="api_8h.html" target="_top" xlink:title=" ">
<polygon fill="white" stroke="#666666" points="123,-74 0,-74 0,-55 123,-55 123,-74"/>
<text text-anchor="middle" x="61.5" y="-62" font-family="Helvetica,sans-Serif" font-size="10.00">gnuradio/KodKal/api.h</text>
</a>
</g>
</g>
<!-- Node1&#45;&gt;Node2 -->
<g id="edge1_Node000001_Node000002" class="edge">
<title>Node1&#45;&gt;Node2</title>
<g id="a_edge1_Node000001_Node000002"><a xlink:title=" ">
<path fill="none" stroke="#63b8ff" d="M126.97,-109.98C115.1,-101.92 97.04,-89.65 82.89,-80.03"/>
<polygon fill="#63b8ff" stroke="#63b8ff" points="84.5,-76.9 74.26,-74.17 80.56,-82.69 84.5,-76.9"/>
</a>
</g>
</g>
<!-- Node4 -->
<g id="Node000004" class="node">
<title>Node4</title>
<g id="a_Node000004"><a xlink:title=" ">
<polygon fill="#e0e0e0" stroke="#999999" points="296,-74 141,-74 141,-55 296,-55 296,-74"/>
<text text-anchor="middle" x="218.5" y="-62" font-family="Helvetica,sans-Serif" font-size="10.00">gnuradio/sync_interpolator.h</text>
</a>
</g>
</g>
<!-- Node1&#45;&gt;Node4 -->
<g id="edge3_Node000001_Node000004" class="edge">
<title>Node1&#45;&gt;Node4</title>
<g id="a_edge3_Node000001_Node000004"><a xlink:title=" ">
<path fill="none" stroke="#63b8ff" d="M152.19,-109.98C164.33,-101.84 182.86,-89.41 197.25,-79.76"/>
<polygon fill="#63b8ff" stroke="#63b8ff" points="199.22,-82.65 205.58,-74.17 195.32,-76.84 199.22,-82.65"/>
</a>
</g>
</g>
<!-- Node3 -->
<g id="Node000003" class="node">
<title>Node3</title>
<g id="a_Node000003"><a xlink:title=" ">
<polygon fill="#e0e0e0" stroke="#999999" points="121,-19 2,-19 2,0 121,0 121,-19"/>
<text text-anchor="middle" x="61.5" y="-7" font-family="Helvetica,sans-Serif" font-size="10.00">gnuradio/attributes.h</text>
</a>
</g>
</g>
<!-- Node2&#45;&gt;Node3 -->
<g id="edge2_Node000002_Node000003" class="edge">
<title>Node2&#45;&gt;Node3</title>
<g id="a_edge2_Node000002_Node000003"><a xlink:title=" ">
<path fill="none" stroke="#63b8ff" d="M61.5,-54.75C61.5,-47.8 61.5,-37.85 61.5,-29.13"/>
<polygon fill="#63b8ff" stroke="#63b8ff" points="65,-29.09 61.5,-19.09 58,-29.09 65,-29.09"/>
</a>
</g>
</g>
</g>
</svg>
