<?xml version="1.0" encoding="UTF-8" standalone="no"?>
<!DOCTYPE svg PUBLIC "-//W3C//DTD SVG 1.1//EN"
 "http://www.w3.org/Graphics/SVG/1.1/DTD/svg11.dtd">
<!-- Generated by graphviz version 2.43.0 (0)
 -->
<!-- Title: Koder_Opak_impl.h Pages: 1 -->
<svg width="304pt" height="203pt"
 viewBox="0.00 0.00 304.00 203.00" xmlns="http://www.w3.org/2000/svg" xmlns:xlink="http://www.w3.org/1999/xlink">
<g id="graph0" class="graph" transform="scale(1 1) rotate(0) translate(4 199)">
<title>Koder_Opak_impl.h</title>
<!-- Node1 -->
<g id="Node000001" class="node">
<title>Node1</title>
<g id="a_Node000001"><a xlink:title=" ">
<polygon fill="#999999" stroke="#666666" points="195,-195 84,-195 84,-176 195,-176 195,-195"/>
<text text-anchor="middle" x="139.5" y="-183" font-family="Helvetica,sans-Serif" font-size="10.00">Koder_Opak_impl.h</text>
</a>
</g>
</g>
<!-- Node2 -->
<g id="Node000002" class="node">
<title>Node2</title>
<g id="a_Node000002"><a xlink:href="Koder__Opak_8h.html" target="_top" xlink:title=" ">
<polygon fill="white" stroke="#666666" points="203,-140 76,-140 76,-110 203,-110 203,-140"/>
<text text-anchor="start" x="84" y="-128" font-family="Helvetica,sans-Serif" font-size="10.00">gnuradio/KodKal/Koder</text>
<text text-anchor="middle" x="139.5" y="-117" font-family="Helvetica,sans-Serif" font-size="10.00">_Opak.h</text>
</a>
</g>
</g>
<!-- Node1&#45;&gt;Node2 -->
<g id="edge1_Node000001_Node000002" class="edge">
<title>Node1&#45;&gt;Node2</title>
<g id="a_edge1_Node000001_Node000002"><a xlink:title=" ">
<path fill="none" stroke="#63b8ff" d="M139.5,-175.87C139.5,-169.11 139.5,-159.35 139.5,-150.26"/>
<polygon fill="#63b8ff" stroke="#63b8ff" points="143,-150.11 139.5,-140.11 136,-150.11 143,-150.11"/>
</a>
</g>
</g>
<!-- Node3 -->
<g id="Node000003" class="node">
<title>Node3</title>
<g id="a_Node000003"><a xlink:href="api_8h.html" target="_top" xlink:title=" ">
<polygon fill="white" stroke="#666666" points="123,-74 0,-74 0,-55 123,-55 123,-74"/>
<text text-anchor="middle" x="61.5" y="-62" font-family="Helvetica,sans-Serif" font-size="10.00">gnuradio/KodKal/api.h</text>
</a>
</g>
</g>
<!-- Node2&#45;&gt;Node3 -->
<g id="edge2_Node000002_Node000003" class="edge">
<title>Node2&#45;&gt;Node3</title>
<g id="a_edge2_Node000002_Node000003"><a xlink:title=" ">
<path fill="none" stroke="#63b8ff" d="M120.62,-109.84C108.72,-100.91 93.38,-89.41 81.3,-80.35"/>
<polygon fill="#63b8ff" stroke="#63b8ff" points="83.29,-77.47 73.19,-74.27 79.09,-83.07 83.29,-77.47"/>
</a>
</g>
</g>
<!-- Node5 -->
<g id="Node000005" class="node">
<title>Node5</title>
<g id="a_Node000005"><a xlink:title=" ">
<polygon fill="#e0e0e0" stroke="#999999" points="296,-74 141,-74 141,-55 296,-55 296,-74"/>
<text text-anchor="middle" x="218.5" y="-62" font-family="Helvetica,sans-Serif" font-size="10.00">gnuradio/sync_interpolator.h</text>
</a>
</g>
</g>
<!-- Node2&#45;&gt;Node5 -->
<g id="edge4_Node000002_Node000005" class="edge">
<title>Node2&#45;&gt;Node5</title>
<g id="a_edge4_Node000002_Node000005"><a xlink:title=" ">
<path fill="none" stroke="#63b8ff" d="M158.62,-109.84C170.68,-100.91 186.21,-89.41 198.44,-80.35"/>
<polygon fill="#63b8ff" stroke="#63b8ff" points="200.71,-83.03 206.66,-74.27 196.54,-77.4 200.71,-83.03"/>
</a>
</g>
</g>
<!-- Node4 -->
<g id="Node000004" class="node">
<title>Node4</title>
<g id="a_Node000004"><a xlink:title=" ">
<polygon fill="#e0e0e0" stroke="#999999" points="121,-19 2,-19 2,0 121,0 121,-19"/>
<text text-anchor="middle" x="61.5" y="-7" font-family="Helvetica,sans-Serif" font-size="10.00">gnuradio/attributes.h</text>
</a>
</g>
</g>
<!-- Node3&#45;&gt;Node4 -->
<g id="edge3_Node000003_Node000004" class="edge">
<title>Node3&#45;&gt;Node4</title>
<g id="a_edge3_Node000003_Node000004"><a xlink:title=" ">
<path fill="none" stroke="#63b8ff" d="M61.5,-54.75C61.5,-47.8 61.5,-37.85 61.5,-29.13"/>
<polygon fill="#63b8ff" stroke="#63b8ff" points="65,-29.09 61.5,-19.09 58,-29.09 65,-29.09"/>
</a>
</g>
</g>
</g>
</svg>
