<?xml version="1.0" encoding="UTF-8" standalone="no"?>
<!DOCTYPE svg PUBLIC "-//W3C//DTD SVG 1.1//EN"
 "http://www.w3.org/Graphics/SVG/1.1/DTD/svg11.dtd">
<!-- Generated by graphviz version 2.43.0 (0)
 -->
<!-- Title: api.h Pages: 1 -->
<svg width="650pt" height="137pt"
 viewBox="0.00 0.00 650.00 137.00" xmlns="http://www.w3.org/2000/svg" xmlns:xlink="http://www.w3.org/1999/xlink">
<g id="graph0" class="graph" transform="scale(1 1) rotate(0) translate(4 133)">
<title>api.h</title>
<!-- Node1 -->
<g id="Node000001" class="node">
<title>Node1</title>
<g id="a_Node000001"><a xlink:title=" ">
<polygon fill="#999999" stroke="#666666" points="343,-129 302,-129 302,-110 343,-110 343,-129"/>
<text text-anchor="middle" x="322.5" y="-117" font-family="Helvetica,sans-Serif" font-size="10.00">api.h</text>
</a>
</g>
</g>
<!-- Node2 -->
<g id="Node000002" class="node">
<title>Node2</title>
<g id="a_Node000002"><a xlink:href="AWGN_8h.html" target="_top" xlink:title=" ">
<polygon fill="white" stroke="#666666" points="96.5,-74 40.5,-74 40.5,-55 96.5,-55 96.5,-74"/>
<text text-anchor="middle" x="68.5" y="-62" font-family="Helvetica,sans-Serif" font-size="10.00">AWGN.h</text>
</a>
</g>
</g>
<!-- Node1&#45;&gt;Node2 -->
<g id="edge1_Node000001_Node000002" class="edge">
<title>Node1&#45;&gt;Node2</title>
<g id="a_edge1_Node000001_Node000002"><a xlink:title=" ">
<path fill="none" stroke="#63b8ff" d="M291.88,-112.11C242.24,-101.75 144.92,-81.45 96.81,-71.41"/>
<polygon fill="#63b8ff" stroke="#63b8ff" points="291.21,-115.55 301.71,-114.16 292.64,-108.69 291.21,-115.55"/>
</a>
</g>
</g>
<!-- Node4 -->
<g id="Node000004" class="node">
<title>Node4</title>
<g id="a_Node000004"><a xlink:href="AWGN__bez__FEC_8h.html" target="_top" xlink:title=" ">
<polygon fill="white" stroke="#666666" points="231,-74 128,-74 128,-55 231,-55 231,-74"/>
<text text-anchor="middle" x="179.5" y="-62" font-family="Helvetica,sans-Serif" font-size="10.00">AWGN_bez_FEC.h</text>
</a>
</g>
</g>
<!-- Node1&#45;&gt;Node4 -->
<g id="edge3_Node000001_Node000004" class="edge">
<title>Node1&#45;&gt;Node4</title>
<g id="a_edge3_Node000001_Node000004"><a xlink:title=" ">
<path fill="none" stroke="#63b8ff" d="M292.08,-107.23C265.35,-97.32 227.01,-83.11 202.69,-74.1"/>
<polygon fill="#63b8ff" stroke="#63b8ff" points="291.11,-110.6 301.71,-110.79 293.55,-104.04 291.11,-110.6"/>
</a>
</g>
</g>
<!-- Node6 -->
<g id="Node000006" class="node">
<title>Node6</title>
<g id="a_Node000006"><a xlink:href="BER_8h.html" target="_top" xlink:title=" ">
<polygon fill="white" stroke="#666666" points="315,-74 270,-74 270,-55 315,-55 315,-74"/>
<text text-anchor="middle" x="292.5" y="-62" font-family="Helvetica,sans-Serif" font-size="10.00">BER.h</text>
</a>
</g>
</g>
<!-- Node1&#45;&gt;Node6 -->
<g id="edge5_Node000001_Node000006" class="edge">
<title>Node1&#45;&gt;Node6</title>
<g id="a_edge5_Node000001_Node000006"><a xlink:title=" ">
<path fill="none" stroke="#63b8ff" d="M312.49,-100.82C307.4,-91.82 301.44,-81.29 297.36,-74.09"/>
<polygon fill="#63b8ff" stroke="#63b8ff" points="309.57,-102.77 317.55,-109.75 315.67,-99.32 309.57,-102.77"/>
</a>
</g>
</g>
<!-- Node8 -->
<g id="Node000008" class="node">
<title>Node8</title>
<g id="a_Node000008"><a xlink:href="MC_8h.html" target="_top" xlink:title=" ">
<polygon fill="white" stroke="#666666" points="387,-74 346,-74 346,-55 387,-55 387,-74"/>
<text text-anchor="middle" x="366.5" y="-62" font-family="Helvetica,sans-Serif" font-size="10.00">MC.h</text>
</a>
</g>
</g>
<!-- Node1&#45;&gt;Node8 -->
<g id="edge7_Node000001_Node000008" class="edge">
<title>Node1&#45;&gt;Node8</title>
<g id="a_edge7_Node000001_Node000008"><a xlink:title=" ">
<path fill="none" stroke="#63b8ff" d="M336.23,-101.96C343.9,-92.72 353.13,-81.6 359.37,-74.09"/>
<polygon fill="#63b8ff" stroke="#63b8ff" points="333.46,-99.82 329.77,-109.75 338.85,-104.29 333.46,-99.82"/>
</a>
</g>
</g>
<!-- Node10 -->
<g id="Node000010" class="node">
<title>Node10</title>
<g id="a_Node000010"><a xlink:href="SER_8h.html" target="_top" xlink:title=" ">
<polygon fill="white" stroke="#666666" points="469.5,-74 425.5,-74 425.5,-55 469.5,-55 469.5,-74"/>
<text text-anchor="middle" x="447.5" y="-62" font-family="Helvetica,sans-Serif" font-size="10.00">SER.h</text>
</a>
</g>
</g>
<!-- Node1&#45;&gt;Node10 -->
<g id="edge9_Node000001_Node000010" class="edge">
<title>Node1&#45;&gt;Node10</title>
<g id="a_edge9_Node000001_Node000010"><a xlink:title=" ">
<path fill="none" stroke="#63b8ff" d="M351.91,-106.03C375.03,-96.23 406.63,-82.83 427.05,-74.17"/>
<polygon fill="#63b8ff" stroke="#63b8ff" points="350.42,-102.86 342.58,-109.98 353.16,-109.3 350.42,-102.86"/>
</a>
</g>
</g>
<!-- Node12 -->
<g id="Node000012" class="node">
<title>Node12</title>
<g id="a_Node000012"><a xlink:href="Teoreticka__BER_8h.html" target="_top" xlink:title=" ">
<polygon fill="white" stroke="#666666" points="611.5,-74 511.5,-74 511.5,-55 611.5,-55 611.5,-74"/>
<text text-anchor="middle" x="561.5" y="-62" font-family="Helvetica,sans-Serif" font-size="10.00">Teoreticka_BER.h</text>
</a>
</g>
</g>
<!-- Node1&#45;&gt;Node12 -->
<g id="edge11_Node000001_Node000012" class="edge">
<title>Node1&#45;&gt;Node12</title>
<g id="a_edge11_Node000001_Node000012"><a xlink:title=" ">
<path fill="none" stroke="#63b8ff" d="M353.26,-111.68C396.65,-102.06 475.81,-84.5 523.04,-74.03"/>
<polygon fill="#63b8ff" stroke="#63b8ff" points="352.3,-108.31 343.29,-113.89 353.81,-115.14 352.3,-108.31"/>
</a>
</g>
</g>
<!-- Node3 -->
<g id="Node000003" class="node">
<title>Node3</title>
<g id="a_Node000003"><a xlink:href="AWGN__impl_8h.html" target="_top" xlink:title=" ">
<polygon fill="white" stroke="#666666" points="83,-19 0,-19 0,0 83,0 83,-19"/>
<text text-anchor="middle" x="41.5" y="-7" font-family="Helvetica,sans-Serif" font-size="10.00">AWGN_impl.h</text>
</a>
</g>
</g>
<!-- Node2&#45;&gt;Node3 -->
<g id="edge2_Node000002_Node000003" class="edge">
<title>Node2&#45;&gt;Node3</title>
<g id="a_edge2_Node000002_Node000003"><a xlink:title=" ">
<path fill="none" stroke="#63b8ff" d="M59.49,-45.82C54.91,-36.82 49.55,-26.29 45.88,-19.09"/>
<polygon fill="#63b8ff" stroke="#63b8ff" points="56.38,-47.43 64.04,-54.75 62.62,-44.25 56.38,-47.43"/>
</a>
</g>
</g>
<!-- Node5 -->
<g id="Node000005" class="node">
<title>Node5</title>
<g id="a_Node000005"><a xlink:href="AWGN__bez__FEC__impl_8h.html" target="_top" xlink:title=" ">
<polygon fill="white" stroke="#666666" points="231.5,-19 101.5,-19 101.5,0 231.5,0 231.5,-19"/>
<text text-anchor="middle" x="166.5" y="-7" font-family="Helvetica,sans-Serif" font-size="10.00">AWGN_bez_FEC_impl.h</text>
</a>
</g>
</g>
<!-- Node4&#45;&gt;Node5 -->
<g id="edge4_Node000004_Node000005" class="edge">
<title>Node4&#45;&gt;Node5</title>
<g id="a_edge4_Node000004_Node000005"><a xlink:title=" ">
<path fill="none" stroke="#63b8ff" d="M174.95,-44.95C172.79,-36.15 170.32,-26.06 168.61,-19.09"/>
<polygon fill="#63b8ff" stroke="#63b8ff" points="171.57,-45.87 177.35,-54.75 178.37,-44.2 171.57,-45.87"/>
</a>
</g>
</g>
<!-- Node7 -->
<g id="Node000007" class="node">
<title>Node7</title>
<g id="a_Node000007"><a xlink:href="BER__impl_8h.html" target="_top" xlink:title=" ">
<polygon fill="white" stroke="#666666" points="321.5,-19 249.5,-19 249.5,0 321.5,0 321.5,-19"/>
<text text-anchor="middle" x="285.5" y="-7" font-family="Helvetica,sans-Serif" font-size="10.00">BER_impl.h</text>
</a>
</g>
</g>
<!-- Node6&#45;&gt;Node7 -->
<g id="edge6_Node000006_Node000007" class="edge">
<title>Node6&#45;&gt;Node7</title>
<g id="a_edge6_Node000006_Node000007"><a xlink:title=" ">
<path fill="none" stroke="#63b8ff" d="M290.01,-44.66C288.86,-35.93 287.55,-25.99 286.63,-19.09"/>
<polygon fill="#63b8ff" stroke="#63b8ff" points="286.56,-45.29 291.34,-54.75 293.5,-44.38 286.56,-45.29"/>
</a>
</g>
</g>
<!-- Node9 -->
<g id="Node000009" class="node">
<title>Node9</title>
<g id="a_Node000009"><a xlink:href="MC__impl_8h.html" target="_top" xlink:title=" ">
<polygon fill="white" stroke="#666666" points="407.5,-19 339.5,-19 339.5,0 407.5,0 407.5,-19"/>
<text text-anchor="middle" x="373.5" y="-7" font-family="Helvetica,sans-Serif" font-size="10.00">MC_impl.h</text>
</a>
</g>
</g>
<!-- Node8&#45;&gt;Node9 -->
<g id="edge8_Node000008_Node000009" class="edge">
<title>Node8&#45;&gt;Node9</title>
<g id="a_edge8_Node000008_Node000009"><a xlink:title=" ">
<path fill="none" stroke="#63b8ff" d="M368.99,-44.66C370.14,-35.93 371.45,-25.99 372.37,-19.09"/>
<polygon fill="#63b8ff" stroke="#63b8ff" points="365.5,-44.38 367.66,-54.75 372.44,-45.29 365.5,-44.38"/>
</a>
</g>
</g>
<!-- Node11 -->
<g id="Node000011" class="node">
<title>Node11</title>
<g id="a_Node000011"><a xlink:href="SER__impl_8h.html" target="_top" xlink:title=" ">
<polygon fill="white" stroke="#666666" points="497,-19 426,-19 426,0 497,0 497,-19"/>
<text text-anchor="middle" x="461.5" y="-7" font-family="Helvetica,sans-Serif" font-size="10.00">SER_impl.h</text>
</a>
</g>
</g>
<!-- Node10&#45;&gt;Node11 -->
<g id="edge10_Node000010_Node000011" class="edge">
<title>Node10&#45;&gt;Node11</title>
<g id="a_edge10_Node000010_Node000011"><a xlink:title=" ">
<path fill="none" stroke="#63b8ff" d="M452.4,-44.95C454.72,-36.15 457.39,-26.06 459.23,-19.09"/>
<polygon fill="#63b8ff" stroke="#63b8ff" points="448.98,-44.19 449.81,-54.75 455.75,-45.97 448.98,-44.19"/>
</a>
</g>
</g>
<!-- Node13 -->
<g id="Node000013" class="node">
<title>Node13</title>
<g id="a_Node000013"><a xlink:href="Teoreticka__BER__impl_8h.html" target="_top" xlink:title=" ">
<polygon fill="white" stroke="#666666" points="642,-19 515,-19 515,0 642,0 642,-19"/>
<text text-anchor="middle" x="578.5" y="-7" font-family="Helvetica,sans-Serif" font-size="10.00">Teoreticka_BER_impl.h</text>
</a>
</g>
</g>
<!-- Node12&#45;&gt;Node13 -->
<g id="edge12_Node000012_Node000013" class="edge">
<title>Node12&#45;&gt;Node13</title>
<g id="a_edge12_Node000012_Node000013"><a xlink:title=" ">
<path fill="none" stroke="#63b8ff" d="M567.45,-44.95C570.27,-36.15 573.51,-26.06 575.75,-19.09"/>
<polygon fill="#63b8ff" stroke="#63b8ff" points="564.03,-44.16 564.31,-54.75 570.69,-46.29 564.03,-44.16"/>
</a>
</g>
</g>
</g>
</svg>
