<?xml version="1.0" encoding="UTF-8" standalone="no"?>
<!DOCTYPE svg PUBLIC "-//W3C//DTD SVG 1.1//EN"
 "http://www.w3.org/Graphics/SVG/1.1/DTD/svg11.dtd">
<!-- Generated by graphviz version 2.43.0 (0)
 -->
<!-- Title: api.h Pages: 1 -->
<svg width="549pt" height="137pt"
 viewBox="0.00 0.00 549.00 137.00" xmlns="http://www.w3.org/2000/svg" xmlns:xlink="http://www.w3.org/1999/xlink">
<g id="graph0" class="graph" transform="scale(1 1) rotate(0) translate(4 133)">
<title>api.h</title>
<!-- Node1 -->
<g id="Node000001" class="node">
<title>Node1</title>
<g id="a_Node000001"><a xlink:title=" ">
<polygon fill="#999999" stroke="#666666" points="291,-129 250,-129 250,-110 291,-110 291,-129"/>
<text text-anchor="middle" x="270.5" y="-117" font-family="Helvetica,sans-Serif" font-size="10.00">api.h</text>
</a>
</g>
</g>
<!-- Node2 -->
<g id="Node000002" class="node">
<title>Node2</title>
<g id="a_Node000002"><a xlink:href="AWGN_8h.html" target="_top" xlink:title=" ">
<polygon fill="white" stroke="#666666" points="96.5,-74 40.5,-74 40.5,-55 96.5,-55 96.5,-74"/>
<text text-anchor="middle" x="68.5" y="-62" font-family="Helvetica,sans-Serif" font-size="10.00">AWGN.h</text>
</a>
</g>
</g>
<!-- Node1&#45;&gt;Node2 -->
<g id="edge1_Node000001_Node000002" class="edge">
<title>Node1&#45;&gt;Node2</title>
<g id="a_edge1_Node000001_Node000002"><a xlink:title=" ">
<path fill="none" stroke="#63b8ff" d="M239.92,-110.48C201.01,-100.27 134.34,-82.78 96.64,-72.88"/>
<polygon fill="#63b8ff" stroke="#63b8ff" points="239.08,-113.88 249.64,-113.03 240.86,-107.1 239.08,-113.88"/>
</a>
</g>
</g>
<!-- Node4 -->
<g id="Node000004" class="node">
<title>Node4</title>
<g id="a_Node000004"><a xlink:href="AWGN__kanal_8h.html" target="_top" xlink:title=" ">
<polygon fill="white" stroke="#666666" points="215.5,-74 127.5,-74 127.5,-55 215.5,-55 215.5,-74"/>
<text text-anchor="middle" x="171.5" y="-62" font-family="Helvetica,sans-Serif" font-size="10.00">AWGN_kanal.h</text>
</a>
</g>
</g>
<!-- Node1&#45;&gt;Node4 -->
<g id="edge3_Node000001_Node000004" class="edge">
<title>Node1&#45;&gt;Node4</title>
<g id="a_edge3_Node000001_Node000004"><a xlink:title=" ">
<path fill="none" stroke="#63b8ff" d="M245.72,-105.23C227.56,-95.51 203.44,-82.6 187.7,-74.17"/>
<polygon fill="#63b8ff" stroke="#63b8ff" points="244.13,-108.35 254.59,-109.98 247.43,-102.18 244.13,-108.35"/>
</a>
</g>
</g>
<!-- Node6 -->
<g id="Node000006" class="node">
<title>Node6</title>
<g id="a_Node000006"><a xlink:href="BER_8h.html" target="_top" xlink:title=" ">
<polygon fill="white" stroke="#666666" points="293,-74 248,-74 248,-55 293,-55 293,-74"/>
<text text-anchor="middle" x="270.5" y="-62" font-family="Helvetica,sans-Serif" font-size="10.00">BER.h</text>
</a>
</g>
</g>
<!-- Node1&#45;&gt;Node6 -->
<g id="edge5_Node000001_Node000006" class="edge">
<title>Node1&#45;&gt;Node6</title>
<g id="a_edge5_Node000001_Node000006"><a xlink:title=" ">
<path fill="none" stroke="#63b8ff" d="M270.5,-99.66C270.5,-90.93 270.5,-80.99 270.5,-74.09"/>
<polygon fill="#63b8ff" stroke="#63b8ff" points="267,-99.75 270.5,-109.75 274,-99.75 267,-99.75"/>
</a>
</g>
</g>
<!-- Node8 -->
<g id="Node000008" class="node">
<title>Node8</title>
<g id="a_Node000008"><a xlink:href="SER_8h.html" target="_top" xlink:title=" ">
<polygon fill="white" stroke="#666666" points="368.5,-74 324.5,-74 324.5,-55 368.5,-55 368.5,-74"/>
<text text-anchor="middle" x="346.5" y="-62" font-family="Helvetica,sans-Serif" font-size="10.00">SER.h</text>
</a>
</g>
</g>
<!-- Node1&#45;&gt;Node8 -->
<g id="edge7_Node000001_Node000008" class="edge">
<title>Node1&#45;&gt;Node8</title>
<g id="a_edge7_Node000001_Node000008"><a xlink:title=" ">
<path fill="none" stroke="#63b8ff" d="M291.08,-104.15C304.81,-94.57 322.43,-82.29 334.07,-74.17"/>
<polygon fill="#63b8ff" stroke="#63b8ff" points="288.91,-101.39 282.71,-109.98 292.92,-107.14 288.91,-101.39"/>
</a>
</g>
</g>
<!-- Node10 -->
<g id="Node000010" class="node">
<title>Node10</title>
<g id="a_Node000010"><a xlink:href="Teoreticka__BER_8h.html" target="_top" xlink:title=" ">
<polygon fill="white" stroke="#666666" points="506.5,-74 406.5,-74 406.5,-55 506.5,-55 506.5,-74"/>
<text text-anchor="middle" x="456.5" y="-62" font-family="Helvetica,sans-Serif" font-size="10.00">Teoreticka_BER.h</text>
</a>
</g>
</g>
<!-- Node1&#45;&gt;Node10 -->
<g id="edge9_Node000001_Node000010" class="edge">
<title>Node1&#45;&gt;Node10</title>
<g id="a_edge9_Node000001_Node000010"><a xlink:title=" ">
<path fill="none" stroke="#63b8ff" d="M301.16,-109.76C335.91,-99.86 392.17,-83.83 426.6,-74.02"/>
<polygon fill="#63b8ff" stroke="#63b8ff" points="299.77,-106.52 291.12,-112.63 301.69,-113.25 299.77,-106.52"/>
</a>
</g>
</g>
<!-- Node3 -->
<g id="Node000003" class="node">
<title>Node3</title>
<g id="a_Node000003"><a xlink:href="AWGN__impl_8h.html" target="_top" xlink:title=" ">
<polygon fill="white" stroke="#666666" points="83,-19 0,-19 0,0 83,0 83,-19"/>
<text text-anchor="middle" x="41.5" y="-7" font-family="Helvetica,sans-Serif" font-size="10.00">AWGN_impl.h</text>
</a>
</g>
</g>
<!-- Node2&#45;&gt;Node3 -->
<g id="edge2_Node000002_Node000003" class="edge">
<title>Node2&#45;&gt;Node3</title>
<g id="a_edge2_Node000002_Node000003"><a xlink:title=" ">
<path fill="none" stroke="#63b8ff" d="M59.49,-45.82C54.91,-36.82 49.55,-26.29 45.88,-19.09"/>
<polygon fill="#63b8ff" stroke="#63b8ff" points="56.38,-47.43 64.04,-54.75 62.62,-44.25 56.38,-47.43"/>
</a>
</g>
</g>
<!-- Node5 -->
<g id="Node000005" class="node">
<title>Node5</title>
<g id="a_Node000005"><a xlink:href="AWGN__kanal__impl_8h.html" target="_top" xlink:title=" ">
<polygon fill="white" stroke="#666666" points="216,-19 101,-19 101,0 216,0 216,-19"/>
<text text-anchor="middle" x="158.5" y="-7" font-family="Helvetica,sans-Serif" font-size="10.00">AWGN_kanal_impl.h</text>
</a>
</g>
</g>
<!-- Node4&#45;&gt;Node5 -->
<g id="edge4_Node000004_Node000005" class="edge">
<title>Node4&#45;&gt;Node5</title>
<g id="a_edge4_Node000004_Node000005"><a xlink:title=" ">
<path fill="none" stroke="#63b8ff" d="M166.95,-44.95C164.79,-36.15 162.32,-26.06 160.61,-19.09"/>
<polygon fill="#63b8ff" stroke="#63b8ff" points="163.57,-45.87 169.35,-54.75 170.37,-44.2 163.57,-45.87"/>
</a>
</g>
</g>
<!-- Node7 -->
<g id="Node000007" class="node">
<title>Node7</title>
<g id="a_Node000007"><a xlink:href="BER__impl_8h.html" target="_top" xlink:title=" ">
<polygon fill="white" stroke="#666666" points="306.5,-19 234.5,-19 234.5,0 306.5,0 306.5,-19"/>
<text text-anchor="middle" x="270.5" y="-7" font-family="Helvetica,sans-Serif" font-size="10.00">BER_impl.h</text>
</a>
</g>
</g>
<!-- Node6&#45;&gt;Node7 -->
<g id="edge6_Node000006_Node000007" class="edge">
<title>Node6&#45;&gt;Node7</title>
<g id="a_edge6_Node000006_Node000007"><a xlink:title=" ">
<path fill="none" stroke="#63b8ff" d="M270.5,-44.66C270.5,-35.93 270.5,-25.99 270.5,-19.09"/>
<polygon fill="#63b8ff" stroke="#63b8ff" points="267,-44.75 270.5,-54.75 274,-44.75 267,-44.75"/>
</a>
</g>
</g>
<!-- Node9 -->
<g id="Node000009" class="node">
<title>Node9</title>
<g id="a_Node000009"><a xlink:href="SER__impl_8h.html" target="_top" xlink:title=" ">
<polygon fill="white" stroke="#666666" points="396,-19 325,-19 325,0 396,0 396,-19"/>
<text text-anchor="middle" x="360.5" y="-7" font-family="Helvetica,sans-Serif" font-size="10.00">SER_impl.h</text>
</a>
</g>
</g>
<!-- Node8&#45;&gt;Node9 -->
<g id="edge8_Node000008_Node000009" class="edge">
<title>Node8&#45;&gt;Node9</title>
<g id="a_edge8_Node000008_Node000009"><a xlink:title=" ">
<path fill="none" stroke="#63b8ff" d="M351.4,-44.95C353.72,-36.15 356.39,-26.06 358.23,-19.09"/>
<polygon fill="#63b8ff" stroke="#63b8ff" points="347.98,-44.19 348.81,-54.75 354.75,-45.97 347.98,-44.19"/>
</a>
</g>
</g>
<!-- Node11 -->
<g id="Node000011" class="node">
<title>Node11</title>
<g id="a_Node000011"><a xlink:href="Teoreticka__BER__impl_8h.html" target="_top" xlink:title=" ">
<polygon fill="white" stroke="#666666" points="541,-19 414,-19 414,0 541,0 541,-19"/>
<text text-anchor="middle" x="477.5" y="-7" font-family="Helvetica,sans-Serif" font-size="10.00">Teoreticka_BER_impl.h</text>
</a>
</g>
</g>
<!-- Node10&#45;&gt;Node11 -->
<g id="edge10_Node000010_Node000011" class="edge">
<title>Node10&#45;&gt;Node11</title>
<g id="a_edge10_Node000010_Node000011"><a xlink:title=" ">
<path fill="none" stroke="#63b8ff" d="M463.74,-45.24C467.25,-36.37 471.3,-26.14 474.1,-19.09"/>
<polygon fill="#63b8ff" stroke="#63b8ff" points="460.4,-44.16 459.97,-54.75 466.91,-46.74 460.4,-44.16"/>
</a>
</g>
</g>
</g>
</svg>
