<?xml version="1.0" encoding="UTF-8" standalone="no"?>
<!DOCTYPE svg PUBLIC "-//W3C//DTD SVG 1.1//EN"
 "http://www.w3.org/Graphics/SVG/1.1/DTD/svg11.dtd">
<!-- Generated by graphviz version 2.43.0 (0)
 -->
<!-- Title: api.h Pages: 1 -->
<svg width="502pt" height="137pt"
 viewBox="0.00 0.00 502.00 137.00" xmlns="http://www.w3.org/2000/svg" xmlns:xlink="http://www.w3.org/1999/xlink">
<g id="graph0" class="graph" transform="scale(1 1) rotate(0) translate(4 133)">
<title>api.h</title>
<!-- Node1 -->
<g id="Node000001" class="node">
<title>Node1</title>
<g id="a_Node000001"><a xlink:title=" ">
<polygon fill="#999999" stroke="#666666" points="246,-129 205,-129 205,-110 246,-110 246,-129"/>
<text text-anchor="middle" x="225.5" y="-117" font-family="Helvetica,sans-Serif" font-size="10.00">api.h</text>
</a>
</g>
</g>
<!-- Node2 -->
<g id="Node000002" class="node">
<title>Node2</title>
<g id="a_Node000002"><a xlink:href="AWGN_8h.html" target="_top" xlink:title=" ">
<polygon fill="white" stroke="#666666" points="96.5,-74 40.5,-74 40.5,-55 96.5,-55 96.5,-74"/>
<text text-anchor="middle" x="68.5" y="-62" font-family="Helvetica,sans-Serif" font-size="10.00">AWGN.h</text>
</a>
</g>
</g>
<!-- Node1&#45;&gt;Node2 -->
<g id="edge1_Node000001_Node000002" class="edge">
<title>Node1&#45;&gt;Node2</title>
<g id="a_edge1_Node000001_Node000002"><a xlink:title=" ">
<path fill="none" stroke="#63b8ff" d="M195.21,-108.27C165.69,-98.31 121.34,-83.34 93.7,-74.01"/>
<polygon fill="#63b8ff" stroke="#63b8ff" points="194.38,-111.69 204.97,-111.57 196.62,-105.06 194.38,-111.69"/>
</a>
</g>
</g>
<!-- Node4 -->
<g id="Node000004" class="node">
<title>Node4</title>
<g id="a_Node000004"><a xlink:href="BER_8h.html" target="_top" xlink:title=" ">
<polygon fill="white" stroke="#666666" points="173,-74 128,-74 128,-55 173,-55 173,-74"/>
<text text-anchor="middle" x="150.5" y="-62" font-family="Helvetica,sans-Serif" font-size="10.00">BER.h</text>
</a>
</g>
</g>
<!-- Node1&#45;&gt;Node4 -->
<g id="edge3_Node000001_Node000004" class="edge">
<title>Node1&#45;&gt;Node4</title>
<g id="a_edge3_Node000001_Node000004"><a xlink:title=" ">
<path fill="none" stroke="#63b8ff" d="M205.19,-104.15C191.64,-94.57 174.26,-82.29 162.77,-74.17"/>
<polygon fill="#63b8ff" stroke="#63b8ff" points="203.26,-107.07 213.45,-109.98 207.3,-101.36 203.26,-107.07"/>
</a>
</g>
</g>
<!-- Node6 -->
<g id="Node000006" class="node">
<title>Node6</title>
<g id="a_Node000006"><a xlink:href="MC_8h.html" target="_top" xlink:title=" ">
<polygon fill="white" stroke="#666666" points="246,-74 205,-74 205,-55 246,-55 246,-74"/>
<text text-anchor="middle" x="225.5" y="-62" font-family="Helvetica,sans-Serif" font-size="10.00">MC.h</text>
</a>
</g>
</g>
<!-- Node1&#45;&gt;Node6 -->
<g id="edge5_Node000001_Node000006" class="edge">
<title>Node1&#45;&gt;Node6</title>
<g id="a_edge5_Node000001_Node000006"><a xlink:title=" ">
<path fill="none" stroke="#63b8ff" d="M225.5,-99.66C225.5,-90.93 225.5,-80.99 225.5,-74.09"/>
<polygon fill="#63b8ff" stroke="#63b8ff" points="222,-99.75 225.5,-109.75 229,-99.75 222,-99.75"/>
</a>
</g>
</g>
<!-- Node8 -->
<g id="Node000008" class="node">
<title>Node8</title>
<g id="a_Node000008"><a xlink:href="SER_8h.html" target="_top" xlink:title=" ">
<polygon fill="white" stroke="#666666" points="321.5,-74 277.5,-74 277.5,-55 321.5,-55 321.5,-74"/>
<text text-anchor="middle" x="299.5" y="-62" font-family="Helvetica,sans-Serif" font-size="10.00">SER.h</text>
</a>
</g>
</g>
<!-- Node1&#45;&gt;Node8 -->
<g id="edge7_Node000001_Node000008" class="edge">
<title>Node1&#45;&gt;Node8</title>
<g id="a_edge7_Node000001_Node000008"><a xlink:title=" ">
<path fill="none" stroke="#63b8ff" d="M245.53,-104.15C258.91,-94.57 276.06,-82.29 287.39,-74.17"/>
<polygon fill="#63b8ff" stroke="#63b8ff" points="243.48,-101.32 237.39,-109.98 247.56,-107.01 243.48,-101.32"/>
</a>
</g>
</g>
<!-- Node10 -->
<g id="Node000010" class="node">
<title>Node10</title>
<g id="a_Node000010"><a xlink:href="Teoreticka__BER_8h.html" target="_top" xlink:title=" ">
<polygon fill="white" stroke="#666666" points="459.5,-74 359.5,-74 359.5,-55 459.5,-55 459.5,-74"/>
<text text-anchor="middle" x="409.5" y="-62" font-family="Helvetica,sans-Serif" font-size="10.00">Teoreticka_BER.h</text>
</a>
</g>
</g>
<!-- Node1&#45;&gt;Node10 -->
<g id="edge9_Node000001_Node000010" class="edge">
<title>Node1&#45;&gt;Node10</title>
<g id="a_edge9_Node000001_Node000010"><a xlink:title=" ">
<path fill="none" stroke="#63b8ff" d="M256.19,-109.66C290.52,-99.77 345.77,-83.86 379.73,-74.08"/>
<polygon fill="#63b8ff" stroke="#63b8ff" points="254.89,-106.39 246.25,-112.52 256.83,-113.12 254.89,-106.39"/>
</a>
</g>
</g>
<!-- Node3 -->
<g id="Node000003" class="node">
<title>Node3</title>
<g id="a_Node000003"><a xlink:href="AWGN__impl_8h.html" target="_top" xlink:title=" ">
<polygon fill="white" stroke="#666666" points="83,-19 0,-19 0,0 83,0 83,-19"/>
<text text-anchor="middle" x="41.5" y="-7" font-family="Helvetica,sans-Serif" font-size="10.00">AWGN_impl.h</text>
</a>
</g>
</g>
<!-- Node2&#45;&gt;Node3 -->
<g id="edge2_Node000002_Node000003" class="edge">
<title>Node2&#45;&gt;Node3</title>
<g id="a_edge2_Node000002_Node000003"><a xlink:title=" ">
<path fill="none" stroke="#63b8ff" d="M59.49,-45.82C54.91,-36.82 49.55,-26.29 45.88,-19.09"/>
<polygon fill="#63b8ff" stroke="#63b8ff" points="56.38,-47.43 64.04,-54.75 62.62,-44.25 56.38,-47.43"/>
</a>
</g>
</g>
<!-- Node5 -->
<g id="Node000005" class="node">
<title>Node5</title>
<g id="a_Node000005"><a xlink:href="BER__impl_8h.html" target="_top" xlink:title=" ">
<polygon fill="white" stroke="#666666" points="173.5,-19 101.5,-19 101.5,0 173.5,0 173.5,-19"/>
<text text-anchor="middle" x="137.5" y="-7" font-family="Helvetica,sans-Serif" font-size="10.00">BER_impl.h</text>
</a>
</g>
</g>
<!-- Node4&#45;&gt;Node5 -->
<g id="edge4_Node000004_Node000005" class="edge">
<title>Node4&#45;&gt;Node5</title>
<g id="a_edge4_Node000004_Node000005"><a xlink:title=" ">
<path fill="none" stroke="#63b8ff" d="M145.95,-44.95C143.79,-36.15 141.32,-26.06 139.61,-19.09"/>
<polygon fill="#63b8ff" stroke="#63b8ff" points="142.57,-45.87 148.35,-54.75 149.37,-44.2 142.57,-45.87"/>
</a>
</g>
</g>
<!-- Node7 -->
<g id="Node000007" class="node">
<title>Node7</title>
<g id="a_Node000007"><a xlink:href="MC__impl_8h.html" target="_top" xlink:title=" ">
<polygon fill="white" stroke="#666666" points="259.5,-19 191.5,-19 191.5,0 259.5,0 259.5,-19"/>
<text text-anchor="middle" x="225.5" y="-7" font-family="Helvetica,sans-Serif" font-size="10.00">MC_impl.h</text>
</a>
</g>
</g>
<!-- Node6&#45;&gt;Node7 -->
<g id="edge6_Node000006_Node000007" class="edge">
<title>Node6&#45;&gt;Node7</title>
<g id="a_edge6_Node000006_Node000007"><a xlink:title=" ">
<path fill="none" stroke="#63b8ff" d="M225.5,-44.66C225.5,-35.93 225.5,-25.99 225.5,-19.09"/>
<polygon fill="#63b8ff" stroke="#63b8ff" points="222,-44.75 225.5,-54.75 229,-44.75 222,-44.75"/>
</a>
</g>
</g>
<!-- Node9 -->
<g id="Node000009" class="node">
<title>Node9</title>
<g id="a_Node000009"><a xlink:href="SER__impl_8h.html" target="_top" xlink:title=" ">
<polygon fill="white" stroke="#666666" points="349,-19 278,-19 278,0 349,0 349,-19"/>
<text text-anchor="middle" x="313.5" y="-7" font-family="Helvetica,sans-Serif" font-size="10.00">SER_impl.h</text>
</a>
</g>
</g>
<!-- Node8&#45;&gt;Node9 -->
<g id="edge8_Node000008_Node000009" class="edge">
<title>Node8&#45;&gt;Node9</title>
<g id="a_edge8_Node000008_Node000009"><a xlink:title=" ">
<path fill="none" stroke="#63b8ff" d="M304.4,-44.95C306.72,-36.15 309.39,-26.06 311.23,-19.09"/>
<polygon fill="#63b8ff" stroke="#63b8ff" points="300.98,-44.19 301.81,-54.75 307.75,-45.97 300.98,-44.19"/>
</a>
</g>
</g>
<!-- Node11 -->
<g id="Node000011" class="node">
<title>Node11</title>
<g id="a_Node000011"><a xlink:href="Teoreticka__BER__impl_8h.html" target="_top" xlink:title=" ">
<polygon fill="white" stroke="#666666" points="494,-19 367,-19 367,0 494,0 494,-19"/>
<text text-anchor="middle" x="430.5" y="-7" font-family="Helvetica,sans-Serif" font-size="10.00">Teoreticka_BER_impl.h</text>
</a>
</g>
</g>
<!-- Node10&#45;&gt;Node11 -->
<g id="edge10_Node000010_Node000011" class="edge">
<title>Node10&#45;&gt;Node11</title>
<g id="a_edge10_Node000010_Node000011"><a xlink:title=" ">
<path fill="none" stroke="#63b8ff" d="M416.74,-45.24C420.25,-36.37 424.3,-26.14 427.1,-19.09"/>
<polygon fill="#63b8ff" stroke="#63b8ff" points="413.4,-44.16 412.97,-54.75 419.91,-46.74 413.4,-44.16"/>
</a>
</g>
</g>
</g>
</svg>
