<?xml version="1.0" encoding="UTF-8" standalone="no"?>
<!DOCTYPE svg PUBLIC "-//W3C//DTD SVG 1.1//EN"
 "http://www.w3.org/Graphics/SVG/1.1/DTD/svg11.dtd">
<!-- Generated by graphviz version 2.43.0 (0)
 -->
<!-- Title: api.h Pages: 1 -->
<svg width="568pt" height="137pt"
 viewBox="0.00 0.00 568.00 137.00" xmlns="http://www.w3.org/2000/svg" xmlns:xlink="http://www.w3.org/1999/xlink">
<g id="graph0" class="graph" transform="scale(1 1) rotate(0) translate(4 133)">
<title>api.h</title>
<!-- Node1 -->
<g id="Node000001" class="node">
<title>Node1</title>
<g id="a_Node000001"><a xlink:title=" ">
<polygon fill="#999999" stroke="#666666" points="307.5,-129 266.5,-129 266.5,-110 307.5,-110 307.5,-129"/>
<text text-anchor="middle" x="287" y="-117" font-family="Helvetica,sans-Serif" font-size="10.00">api.h</text>
</a>
</g>
</g>
<!-- Node2 -->
<g id="Node000002" class="node">
<title>Node2</title>
<g id="a_Node000002"><a xlink:href="BER__moje_8h.html" target="_top" xlink:title=" ">
<polygon fill="white" stroke="#666666" points="115.5,-74 40.5,-74 40.5,-55 115.5,-55 115.5,-74"/>
<text text-anchor="middle" x="78" y="-62" font-family="Helvetica,sans-Serif" font-size="10.00">BER_moje.h</text>
</a>
</g>
</g>
<!-- Node1&#45;&gt;Node2 -->
<g id="edge1_Node000001_Node000002" class="edge">
<title>Node1&#45;&gt;Node2</title>
<g id="a_edge1_Node000001_Node000002"><a xlink:title=" ">
<path fill="none" stroke="#63b8ff" d="M256.07,-110.66C217.45,-100.86 151.63,-84.17 111.75,-74.06"/>
<polygon fill="#63b8ff" stroke="#63b8ff" points="255.64,-114.16 266.2,-113.22 257.36,-107.37 255.64,-114.16"/>
</a>
</g>
</g>
<!-- Node4 -->
<g id="Node000004" class="node">
<title>Node4</title>
<g id="a_Node000004"><a xlink:href="BER__sync_8h.html" target="_top" xlink:title=" ">
<polygon fill="white" stroke="#666666" points="219.5,-74 146.5,-74 146.5,-55 219.5,-55 219.5,-74"/>
<text text-anchor="middle" x="183" y="-62" font-family="Helvetica,sans-Serif" font-size="10.00">BER_sync.h</text>
</a>
</g>
</g>
<!-- Node1&#45;&gt;Node4 -->
<g id="edge3_Node000001_Node000004" class="edge">
<title>Node1&#45;&gt;Node4</title>
<g id="a_edge3_Node000001_Node000004"><a xlink:title=" ">
<path fill="none" stroke="#63b8ff" d="M261.23,-105.37C242.13,-95.63 216.63,-82.64 200.01,-74.17"/>
<polygon fill="#63b8ff" stroke="#63b8ff" points="259.79,-108.56 270.29,-109.98 262.97,-102.33 259.79,-108.56"/>
</a>
</g>
</g>
<!-- Node6 -->
<g id="Node000006" class="node">
<title>Node6</title>
<g id="a_Node000006"><a xlink:href="PrintChar_8h.html" target="_top" xlink:title=" ">
<polygon fill="white" stroke="#666666" points="322,-74 252,-74 252,-55 322,-55 322,-74"/>
<text text-anchor="middle" x="287" y="-62" font-family="Helvetica,sans-Serif" font-size="10.00">PrintChar.h</text>
</a>
</g>
</g>
<!-- Node1&#45;&gt;Node6 -->
<g id="edge5_Node000001_Node000006" class="edge">
<title>Node1&#45;&gt;Node6</title>
<g id="a_edge5_Node000001_Node000006"><a xlink:title=" ">
<path fill="none" stroke="#63b8ff" d="M287,-99.66C287,-90.93 287,-80.99 287,-74.09"/>
<polygon fill="#63b8ff" stroke="#63b8ff" points="283.5,-99.75 287,-109.75 290.5,-99.75 283.5,-99.75"/>
</a>
</g>
</g>
<!-- Node8 -->
<g id="Node000008" class="node">
<title>Node8</title>
<g id="a_Node000008"><a xlink:href="PrintFloat_8h.html" target="_top" xlink:title=" ">
<polygon fill="white" stroke="#666666" points="426.5,-74 353.5,-74 353.5,-55 426.5,-55 426.5,-74"/>
<text text-anchor="middle" x="390" y="-62" font-family="Helvetica,sans-Serif" font-size="10.00">PrintFloat.h</text>
</a>
</g>
</g>
<!-- Node1&#45;&gt;Node8 -->
<g id="edge7_Node000001_Node000008" class="edge">
<title>Node1&#45;&gt;Node8</title>
<g id="a_edge7_Node000001_Node000008"><a xlink:title=" ">
<path fill="none" stroke="#63b8ff" d="M312.52,-105.37C331.44,-95.63 356.7,-82.64 373.15,-74.17"/>
<polygon fill="#63b8ff" stroke="#63b8ff" points="310.84,-102.3 303.55,-109.98 314.04,-108.52 310.84,-102.3"/>
</a>
</g>
</g>
<!-- Node10 -->
<g id="Node000010" class="node">
<title>Node10</title>
<g id="a_Node000010"><a xlink:href="PrintInt_8h.html" target="_top" xlink:title=" ">
<polygon fill="white" stroke="#666666" points="525.5,-74 464.5,-74 464.5,-55 525.5,-55 525.5,-74"/>
<text text-anchor="middle" x="495" y="-62" font-family="Helvetica,sans-Serif" font-size="10.00">PrintInt.h</text>
</a>
</g>
</g>
<!-- Node1&#45;&gt;Node10 -->
<g id="edge9_Node000001_Node000010" class="edge">
<title>Node1&#45;&gt;Node10</title>
<g id="a_edge9_Node000001_Node000010"><a xlink:title=" ">
<path fill="none" stroke="#63b8ff" d="M317.53,-110.72C356.88,-100.69 424.93,-83.36 464.34,-73.31"/>
<polygon fill="#63b8ff" stroke="#63b8ff" points="316.53,-107.36 307.7,-113.22 318.26,-114.15 316.53,-107.36"/>
</a>
</g>
</g>
<!-- Node3 -->
<g id="Node000003" class="node">
<title>Node3</title>
<g id="a_Node000003"><a xlink:href="BER__moje__impl_8h.html" target="_top" xlink:title=" ">
<polygon fill="white" stroke="#666666" points="102,-19 0,-19 0,0 102,0 102,-19"/>
<text text-anchor="middle" x="51" y="-7" font-family="Helvetica,sans-Serif" font-size="10.00">BER_moje_impl.h</text>
</a>
</g>
</g>
<!-- Node2&#45;&gt;Node3 -->
<g id="edge2_Node000002_Node000003" class="edge">
<title>Node2&#45;&gt;Node3</title>
<g id="a_edge2_Node000002_Node000003"><a xlink:title=" ">
<path fill="none" stroke="#63b8ff" d="M68.99,-45.82C64.41,-36.82 59.05,-26.29 55.38,-19.09"/>
<polygon fill="#63b8ff" stroke="#63b8ff" points="65.88,-47.43 73.54,-54.75 72.12,-44.25 65.88,-47.43"/>
</a>
</g>
</g>
<!-- Node5 -->
<g id="Node000005" class="node">
<title>Node5</title>
<g id="a_Node000005"><a xlink:href="BER__sync__impl_8h.html" target="_top" xlink:title=" ">
<polygon fill="white" stroke="#666666" points="220,-19 120,-19 120,0 220,0 220,-19"/>
<text text-anchor="middle" x="170" y="-7" font-family="Helvetica,sans-Serif" font-size="10.00">BER_sync_impl.h</text>
</a>
</g>
</g>
<!-- Node4&#45;&gt;Node5 -->
<g id="edge4_Node000004_Node000005" class="edge">
<title>Node4&#45;&gt;Node5</title>
<g id="a_edge4_Node000004_Node000005"><a xlink:title=" ">
<path fill="none" stroke="#63b8ff" d="M178.45,-44.95C176.29,-36.15 173.82,-26.06 172.11,-19.09"/>
<polygon fill="#63b8ff" stroke="#63b8ff" points="175.07,-45.87 180.85,-54.75 181.87,-44.2 175.07,-45.87"/>
</a>
</g>
</g>
<!-- Node7 -->
<g id="Node000007" class="node">
<title>Node7</title>
<g id="a_Node000007"><a xlink:href="PrintChar__impl_8h.html" target="_top" xlink:title=" ">
<polygon fill="white" stroke="#666666" points="336,-19 238,-19 238,0 336,0 336,-19"/>
<text text-anchor="middle" x="287" y="-7" font-family="Helvetica,sans-Serif" font-size="10.00">PrintChar_impl.h</text>
</a>
</g>
</g>
<!-- Node6&#45;&gt;Node7 -->
<g id="edge6_Node000006_Node000007" class="edge">
<title>Node6&#45;&gt;Node7</title>
<g id="a_edge6_Node000006_Node000007"><a xlink:title=" ">
<path fill="none" stroke="#63b8ff" d="M287,-44.66C287,-35.93 287,-25.99 287,-19.09"/>
<polygon fill="#63b8ff" stroke="#63b8ff" points="283.5,-44.75 287,-54.75 290.5,-44.75 283.5,-44.75"/>
</a>
</g>
</g>
<!-- Node9 -->
<g id="Node000009" class="node">
<title>Node9</title>
<g id="a_Node000009"><a xlink:href="PrintFloat__impl_8h.html" target="_top" xlink:title=" ">
<polygon fill="white" stroke="#666666" points="454,-19 354,-19 354,0 454,0 454,-19"/>
<text text-anchor="middle" x="404" y="-7" font-family="Helvetica,sans-Serif" font-size="10.00">PrintFloat_impl.h</text>
</a>
</g>
</g>
<!-- Node8&#45;&gt;Node9 -->
<g id="edge8_Node000008_Node000009" class="edge">
<title>Node8&#45;&gt;Node9</title>
<g id="a_edge8_Node000008_Node000009"><a xlink:title=" ">
<path fill="none" stroke="#63b8ff" d="M394.9,-44.95C397.22,-36.15 399.89,-26.06 401.73,-19.09"/>
<polygon fill="#63b8ff" stroke="#63b8ff" points="391.48,-44.19 392.31,-54.75 398.25,-45.97 391.48,-44.19"/>
</a>
</g>
</g>
<!-- Node11 -->
<g id="Node000011" class="node">
<title>Node11</title>
<g id="a_Node000011"><a xlink:href="PrintInt__impl_8h.html" target="_top" xlink:title=" ">
<polygon fill="white" stroke="#666666" points="560,-19 472,-19 472,0 560,0 560,-19"/>
<text text-anchor="middle" x="516" y="-7" font-family="Helvetica,sans-Serif" font-size="10.00">PrintInt_impl.h</text>
</a>
</g>
</g>
<!-- Node10&#45;&gt;Node11 -->
<g id="edge10_Node000010_Node000011" class="edge">
<title>Node10&#45;&gt;Node11</title>
<g id="a_edge10_Node000010_Node000011"><a xlink:title=" ">
<path fill="none" stroke="#63b8ff" d="M502.24,-45.24C505.75,-36.37 509.8,-26.14 512.6,-19.09"/>
<polygon fill="#63b8ff" stroke="#63b8ff" points="498.9,-44.16 498.47,-54.75 505.41,-46.74 498.9,-44.16"/>
</a>
</g>
</g>
</g>
</svg>
