<?xml version="1.0" encoding="UTF-8" standalone="no"?>
<!DOCTYPE svg PUBLIC "-//W3C//DTD SVG 1.1//EN"
 "http://www.w3.org/Graphics/SVG/1.1/DTD/svg11.dtd">
<!-- Generated by graphviz version 2.43.0 (0)
 -->
<!-- Title: BER_sync_impl.h Pages: 1 -->
<svg width="276pt" height="203pt"
 viewBox="0.00 0.00 275.50 203.00" xmlns="http://www.w3.org/2000/svg" xmlns:xlink="http://www.w3.org/1999/xlink">
<g id="graph0" class="graph" transform="scale(1 1) rotate(0) translate(4 199)">
<title>BER_sync_impl.h</title>
<!-- Node1 -->
<g id="Node000001" class="node">
<title>Node1</title>
<g id="a_Node000001"><a xlink:title=" ">
<polygon fill="#999999" stroke="#666666" points="183,-195 83,-195 83,-176 183,-176 183,-195"/>
<text text-anchor="middle" x="133" y="-183" font-family="Helvetica,sans-Serif" font-size="10.00">BER_sync_impl.h</text>
</a>
</g>
</g>
<!-- Node2 -->
<g id="Node000002" class="node">
<title>Node2</title>
<g id="a_Node000002"><a xlink:href="BER__sync_8h.html" target="_top" xlink:title=" ">
<polygon fill="white" stroke="#666666" points="192.5,-140 73.5,-140 73.5,-110 192.5,-110 192.5,-140"/>
<text text-anchor="start" x="81.5" y="-128" font-family="Helvetica,sans-Serif" font-size="10.00">gnuradio/ErTools/BER</text>
<text text-anchor="middle" x="133" y="-117" font-family="Helvetica,sans-Serif" font-size="10.00">_sync.h</text>
</a>
</g>
</g>
<!-- Node1&#45;&gt;Node2 -->
<g id="edge1_Node000001_Node000002" class="edge">
<title>Node1&#45;&gt;Node2</title>
<g id="a_edge1_Node000001_Node000002"><a xlink:title=" ">
<path fill="none" stroke="#63b8ff" d="M133,-175.87C133,-169.11 133,-159.35 133,-150.26"/>
<polygon fill="#63b8ff" stroke="#63b8ff" points="136.5,-150.11 133,-140.11 129.5,-150.11 136.5,-150.11"/>
</a>
</g>
</g>
<!-- Node3 -->
<g id="Node000003" class="node">
<title>Node3</title>
<g id="a_Node000003"><a xlink:href="api_8h.html" target="_top" xlink:title=" ">
<polygon fill="white" stroke="#666666" points="124,-74 0,-74 0,-55 124,-55 124,-74"/>
<text text-anchor="middle" x="62" y="-62" font-family="Helvetica,sans-Serif" font-size="10.00">gnuradio/ErTools/api.h</text>
</a>
</g>
</g>
<!-- Node2&#45;&gt;Node3 -->
<g id="edge2_Node000002_Node000003" class="edge">
<title>Node2&#45;&gt;Node3</title>
<g id="a_edge2_Node000002_Node000003"><a xlink:title=" ">
<path fill="none" stroke="#63b8ff" d="M115.81,-109.84C105.19,-101.09 91.56,-89.85 80.67,-80.88"/>
<polygon fill="#63b8ff" stroke="#63b8ff" points="82.58,-77.92 72.64,-74.27 78.13,-83.33 82.58,-77.92"/>
</a>
</g>
</g>
<!-- Node5 -->
<g id="Node000005" class="node">
<title>Node5</title>
<g id="a_Node000005"><a xlink:title=" ">
<polygon fill="#e0e0e0" stroke="#999999" points="267.5,-74 142.5,-74 142.5,-55 267.5,-55 267.5,-74"/>
<text text-anchor="middle" x="205" y="-62" font-family="Helvetica,sans-Serif" font-size="10.00">gnuradio/sync_block.h</text>
</a>
</g>
</g>
<!-- Node2&#45;&gt;Node5 -->
<g id="edge4_Node000002_Node000005" class="edge">
<title>Node2&#45;&gt;Node5</title>
<g id="a_edge4_Node000002_Node000005"><a xlink:title=" ">
<path fill="none" stroke="#63b8ff" d="M150.43,-109.84C161.31,-101 175.3,-89.63 186.39,-80.62"/>
<polygon fill="#63b8ff" stroke="#63b8ff" points="188.66,-83.29 194.21,-74.27 184.24,-77.86 188.66,-83.29"/>
</a>
</g>
</g>
<!-- Node4 -->
<g id="Node000004" class="node">
<title>Node4</title>
<g id="a_Node000004"><a xlink:title=" ">
<polygon fill="#e0e0e0" stroke="#999999" points="121.5,-19 2.5,-19 2.5,0 121.5,0 121.5,-19"/>
<text text-anchor="middle" x="62" y="-7" font-family="Helvetica,sans-Serif" font-size="10.00">gnuradio/attributes.h</text>
</a>
</g>
</g>
<!-- Node3&#45;&gt;Node4 -->
<g id="edge3_Node000003_Node000004" class="edge">
<title>Node3&#45;&gt;Node4</title>
<g id="a_edge3_Node000003_Node000004"><a xlink:title=" ">
<path fill="none" stroke="#63b8ff" d="M62,-54.75C62,-47.8 62,-37.85 62,-29.13"/>
<polygon fill="#63b8ff" stroke="#63b8ff" points="65.5,-29.09 62,-19.09 58.5,-29.09 65.5,-29.09"/>
</a>
</g>
</g>
</g>
</svg>
