<?xml version="1.0" encoding="UTF-8" standalone="no"?>
<!DOCTYPE svg PUBLIC "-//W3C//DTD SVG 1.1//EN"
 "http://www.w3.org/Graphics/SVG/1.1/DTD/svg11.dtd">
<!-- Generated by graphviz version 2.43.0 (0)
 -->
<!-- Title: Graphical Class Hierarchy Pages: 1 -->
<svg width="447pt" height="236pt"
 viewBox="0.00 0.00 447.00 235.50" xmlns="http://www.w3.org/2000/svg" xmlns:xlink="http://www.w3.org/1999/xlink">
<g id="graph0" class="graph" transform="scale(1 1) rotate(0) translate(4 231.5)">
<title>Graphical Class Hierarchy</title>
<!-- Node0 -->
<g id="Node000000" class="node">
<title>Node0</title>
<g id="a_Node000000"><a xlink:title=" ">
<polygon fill="#e0e0e0" stroke="#999999" points="86,-122.5 0,-122.5 0,-103.5 86,-103.5 86,-122.5"/>
<text text-anchor="middle" x="43" y="-110.5" font-family="Helvetica,sans-Serif" font-size="10.00">gr::sync_block</text>
</a>
</g>
</g>
<!-- Node1 -->
<g id="Node000001" class="node">
<title>Node1</title>
<g id="a_Node000001"><a xlink:href="classgr_1_1ErTools_1_1AWGN.html" target="_top" xlink:title="&lt;+description of block+&gt;">
<polygon fill="white" stroke="#666666" points="249,-222.5 145,-222.5 145,-203.5 249,-203.5 249,-222.5"/>
<text text-anchor="middle" x="197" y="-210.5" font-family="Helvetica,sans-Serif" font-size="10.00">gr::ErTools::AWGN</text>
</a>
</g>
</g>
<!-- Node0&#45;&gt;Node1 -->
<g id="edge1_Node000000_Node000001" class="edge">
<title>Node0&#45;&gt;Node1</title>
<g id="a_edge1_Node000000_Node000001"><a xlink:title=" ">
<path fill="none" stroke="#63b8ff" d="M57.55,-131.03C71.76,-148.74 95.66,-175.31 122,-191 130.75,-196.21 140.83,-200.27 150.67,-203.4"/>
<polygon fill="#63b8ff" stroke="#63b8ff" points="59.95,-128.42 51.04,-122.69 54.43,-132.72 59.95,-128.42"/>
</a>
</g>
</g>
<!-- Node3 -->
<g id="Node000003" class="node">
<title>Node3</title>
<g id="a_Node000003"><a xlink:href="classgr_1_1ErTools_1_1AWGN__bez__FEC.html" target="_top" xlink:title="&lt;+description of block+&gt;">
<polygon fill="white" stroke="#666666" points="272,-181.5 122,-181.5 122,-162.5 272,-162.5 272,-181.5"/>
<text text-anchor="middle" x="197" y="-169.5" font-family="Helvetica,sans-Serif" font-size="10.00">gr::ErTools::AWGN_bez_FEC</text>
</a>
</g>
</g>
<!-- Node0&#45;&gt;Node3 -->
<g id="edge3_Node000000_Node000003" class="edge">
<title>Node0&#45;&gt;Node3</title>
<g id="a_edge3_Node000000_Node000003"><a xlink:title=" ">
<path fill="none" stroke="#63b8ff" d="M70.37,-127.3C85.25,-134.99 104.34,-144.25 122,-151 133.35,-155.34 145.98,-159.24 157.55,-162.48"/>
<polygon fill="#63b8ff" stroke="#63b8ff" points="71.74,-124.06 61.26,-122.51 68.49,-130.26 71.74,-124.06"/>
</a>
</g>
</g>
<!-- Node5 -->
<g id="Node000005" class="node">
<title>Node5</title>
<g id="a_Node000005"><a xlink:href="classgr_1_1ErTools_1_1BER.html" target="_top" xlink:title="&lt;+description of block+&gt;">
<polygon fill="white" stroke="#666666" points="243,-141.5 151,-141.5 151,-122.5 243,-122.5 243,-141.5"/>
<text text-anchor="middle" x="197" y="-129.5" font-family="Helvetica,sans-Serif" font-size="10.00">gr::ErTools::BER</text>
</a>
</g>
</g>
<!-- Node0&#45;&gt;Node5 -->
<g id="edge5_Node000000_Node000005" class="edge">
<title>Node0&#45;&gt;Node5</title>
<g id="a_edge5_Node000000_Node000005"><a xlink:title=" ">
<path fill="none" stroke="#63b8ff" d="M96.53,-119.57C114.25,-121.78 133.87,-124.23 150.97,-126.37"/>
<polygon fill="#63b8ff" stroke="#63b8ff" points="96.7,-116.06 86.34,-118.29 95.83,-123.01 96.7,-116.06"/>
</a>
</g>
</g>
<!-- Node7 -->
<g id="Node000007" class="node">
<title>Node7</title>
<g id="a_Node000007"><a xlink:href="classgr_1_1ErTools_1_1MC.html" target="_top" xlink:title="&lt;+description of block+&gt;">
<polygon fill="white" stroke="#666666" points="241.5,-104.5 152.5,-104.5 152.5,-85.5 241.5,-85.5 241.5,-104.5"/>
<text text-anchor="middle" x="197" y="-92.5" font-family="Helvetica,sans-Serif" font-size="10.00">gr::ErTools::MC</text>
</a>
</g>
</g>
<!-- Node0&#45;&gt;Node7 -->
<g id="edge7_Node000000_Node000007" class="edge">
<title>Node0&#45;&gt;Node7</title>
<g id="a_edge7_Node000000_Node000007"><a xlink:title=" ">
<path fill="none" stroke="#63b8ff" d="M96.5,-106.78C114.7,-104.63 134.89,-102.24 152.3,-100.18"/>
<polygon fill="#63b8ff" stroke="#63b8ff" points="95.86,-103.33 86.34,-107.99 96.68,-110.29 95.86,-103.33"/>
</a>
</g>
</g>
<!-- Node9 -->
<g id="Node000009" class="node">
<title>Node9</title>
<g id="a_Node000009"><a xlink:href="classgr_1_1ErTools_1_1SER.html" target="_top" xlink:title="&lt;+description of block+&gt;">
<polygon fill="white" stroke="#666666" points="243,-67.5 151,-67.5 151,-48.5 243,-48.5 243,-67.5"/>
<text text-anchor="middle" x="197" y="-55.5" font-family="Helvetica,sans-Serif" font-size="10.00">gr::ErTools::SER</text>
</a>
</g>
</g>
<!-- Node0&#45;&gt;Node9 -->
<g id="edge9_Node000000_Node000009" class="edge">
<title>Node0&#45;&gt;Node9</title>
<g id="a_edge9_Node000000_Node000009"><a xlink:title=" ">
<path fill="none" stroke="#63b8ff" d="M71.27,-98.93C86.02,-91.71 104.71,-83.15 122,-77 132,-73.44 142.97,-70.25 153.34,-67.55"/>
<polygon fill="#63b8ff" stroke="#63b8ff" points="69.59,-95.86 62.2,-103.45 72.71,-102.13 69.59,-95.86"/>
</a>
</g>
</g>
<!-- Node11 -->
<g id="Node000011" class="node">
<title>Node11</title>
<g id="a_Node000011"><a xlink:href="classgr_1_1ErTools_1_1Teoreticka__BER.html" target="_top" xlink:title="&lt;+description of block+&gt;">
<polygon fill="white" stroke="#666666" points="270.5,-27.5 123.5,-27.5 123.5,-8.5 270.5,-8.5 270.5,-27.5"/>
<text text-anchor="middle" x="197" y="-15.5" font-family="Helvetica,sans-Serif" font-size="10.00">gr::ErTools::Teoreticka_BER</text>
</a>
</g>
</g>
<!-- Node0&#45;&gt;Node11 -->
<g id="edge11_Node000000_Node000011" class="edge">
<title>Node0&#45;&gt;Node11</title>
<g id="a_edge11_Node000000_Node000011"><a xlink:title=" ">
<path fill="none" stroke="#63b8ff" d="M58.17,-95.31C72.55,-78.49 96.31,-53.63 122,-39 130.35,-34.24 139.86,-30.5 149.22,-27.58"/>
<polygon fill="#63b8ff" stroke="#63b8ff" points="55.24,-93.36 51.54,-103.28 60.62,-97.83 55.24,-93.36"/>
</a>
</g>
</g>
<!-- Node2 -->
<g id="Node000002" class="node">
<title>Node2</title>
<g id="a_Node000002"><a xlink:href="classgr_1_1ErTools_1_1AWGN__impl.html" target="_top" xlink:title=" ">
<polygon fill="white" stroke="#666666" points="439,-227.5 308,-227.5 308,-208.5 439,-208.5 439,-227.5"/>
<text text-anchor="middle" x="373.5" y="-215.5" font-family="Helvetica,sans-Serif" font-size="10.00">gr::ErTools::AWGN_impl</text>
</a>
</g>
</g>
<!-- Node1&#45;&gt;Node2 -->
<g id="edge2_Node000001_Node000002" class="edge">
<title>Node1&#45;&gt;Node2</title>
<g id="a_edge2_Node000001_Node000002"><a xlink:title=" ">
<path fill="none" stroke="#63b8ff" d="M259.5,-214.76C275.15,-215.21 292.01,-215.69 307.82,-216.15"/>
<polygon fill="#63b8ff" stroke="#63b8ff" points="259.51,-211.26 249.41,-214.47 259.31,-218.26 259.51,-211.26"/>
</a>
</g>
</g>
<!-- Node4 -->
<g id="Node000004" class="node">
<title>Node4</title>
<g id="a_Node000004"><a xlink:href="classgr_1_1ErTools_1_1AWGN__bez__FEC__impl.html" target="_top" xlink:title=" ">
<polygon fill="white" stroke="#666666" points="436.5,-190 310.5,-190 310.5,-160 436.5,-160 436.5,-190"/>
<text text-anchor="start" x="318.5" y="-178" font-family="Helvetica,sans-Serif" font-size="10.00">gr::ErTools::AWGN_bez</text>
<text text-anchor="middle" x="373.5" y="-167" font-family="Helvetica,sans-Serif" font-size="10.00">_FEC_impl</text>
</a>
</g>
</g>
<!-- Node3&#45;&gt;Node4 -->
<g id="edge4_Node000003_Node000004" class="edge">
<title>Node3&#45;&gt;Node4</title>
<g id="a_edge4_Node000003_Node000004"><a xlink:title=" ">
<path fill="none" stroke="#63b8ff" d="M282.28,-173.45C291.79,-173.61 301.34,-173.78 310.49,-173.93"/>
<polygon fill="#63b8ff" stroke="#63b8ff" points="282.06,-169.94 272,-173.27 281.94,-176.94 282.06,-169.94"/>
</a>
</g>
</g>
<!-- Node6 -->
<g id="Node000006" class="node">
<title>Node6</title>
<g id="a_Node000006"><a xlink:href="classgr_1_1ErTools_1_1BER__impl.html" target="_top" xlink:title=" ">
<polygon fill="white" stroke="#666666" points="433,-141.5 314,-141.5 314,-122.5 433,-122.5 433,-141.5"/>
<text text-anchor="middle" x="373.5" y="-129.5" font-family="Helvetica,sans-Serif" font-size="10.00">gr::ErTools::BER_impl</text>
</a>
</g>
</g>
<!-- Node5&#45;&gt;Node6 -->
<g id="edge6_Node000005_Node000006" class="edge">
<title>Node5&#45;&gt;Node6</title>
<g id="a_edge6_Node000005_Node000006"><a xlink:title=" ">
<path fill="none" stroke="#63b8ff" d="M253.51,-132C272.74,-132 294.36,-132 313.84,-132"/>
<polygon fill="#63b8ff" stroke="#63b8ff" points="253.39,-128.5 243.39,-132 253.39,-135.5 253.39,-128.5"/>
</a>
</g>
</g>
<!-- Node8 -->
<g id="Node000008" class="node">
<title>Node8</title>
<g id="a_Node000008"><a xlink:href="classgr_1_1ErTools_1_1MC__impl.html" target="_top" xlink:title=" ">
<polygon fill="white" stroke="#666666" points="431.5,-104.5 315.5,-104.5 315.5,-85.5 431.5,-85.5 431.5,-104.5"/>
<text text-anchor="middle" x="373.5" y="-92.5" font-family="Helvetica,sans-Serif" font-size="10.00">gr::ErTools::MC_impl</text>
</a>
</g>
</g>
<!-- Node7&#45;&gt;Node8 -->
<g id="edge8_Node000007_Node000008" class="edge">
<title>Node7&#45;&gt;Node8</title>
<g id="a_edge8_Node000007_Node000008"><a xlink:title=" ">
<path fill="none" stroke="#63b8ff" d="M251.83,-95C271.96,-95 294.9,-95 315.32,-95"/>
<polygon fill="#63b8ff" stroke="#63b8ff" points="251.58,-91.5 241.58,-95 251.58,-98.5 251.58,-91.5"/>
</a>
</g>
</g>
<!-- Node10 -->
<g id="Node000010" class="node">
<title>Node10</title>
<g id="a_Node000010"><a xlink:href="classgr_1_1ErTools_1_1SER__impl.html" target="_top" xlink:title=" ">
<polygon fill="white" stroke="#666666" points="433,-67.5 314,-67.5 314,-48.5 433,-48.5 433,-67.5"/>
<text text-anchor="middle" x="373.5" y="-55.5" font-family="Helvetica,sans-Serif" font-size="10.00">gr::ErTools::SER_impl</text>
</a>
</g>
</g>
<!-- Node9&#45;&gt;Node10 -->
<g id="edge10_Node000009_Node000010" class="edge">
<title>Node9&#45;&gt;Node10</title>
<g id="a_edge10_Node000009_Node000010"><a xlink:title=" ">
<path fill="none" stroke="#63b8ff" d="M253.51,-58C272.74,-58 294.36,-58 313.84,-58"/>
<polygon fill="#63b8ff" stroke="#63b8ff" points="253.39,-54.5 243.39,-58 253.39,-61.5 253.39,-54.5"/>
</a>
</g>
</g>
<!-- Node12 -->
<g id="Node000012" class="node">
<title>Node12</title>
<g id="a_Node000012"><a xlink:href="classgr_1_1ErTools_1_1Teoreticka__BER__impl.html" target="_top" xlink:title=" ">
<polygon fill="white" stroke="#666666" points="434.5,-30 312.5,-30 312.5,0 434.5,0 434.5,-30"/>
<text text-anchor="start" x="320.5" y="-18" font-family="Helvetica,sans-Serif" font-size="10.00">gr::ErTools::Teoreticka</text>
<text text-anchor="middle" x="373.5" y="-7" font-family="Helvetica,sans-Serif" font-size="10.00">_BER_impl</text>
</a>
</g>
</g>
<!-- Node11&#45;&gt;Node12 -->
<g id="edge12_Node000011_Node000012" class="edge">
<title>Node11&#45;&gt;Node12</title>
<g id="a_edge12_Node000011_Node000012"><a xlink:title=" ">
<path fill="none" stroke="#63b8ff" d="M280.86,-16.58C291.47,-16.39 302.17,-16.21 312.32,-16.03"/>
<polygon fill="#63b8ff" stroke="#63b8ff" points="280.68,-13.08 270.74,-16.75 280.8,-20.08 280.68,-13.08"/>
</a>
</g>
</g>
</g>
</svg>
