<?xml version="1.0" encoding="UTF-8" standalone="no"?>
<!DOCTYPE svg PUBLIC "-//W3C//DTD SVG 1.1//EN"
 "http://www.w3.org/Graphics/SVG/1.1/DTD/svg11.dtd">
<!-- Generated by graphviz version 2.43.0 (0)
 -->
<!-- Title: Graphical Class Hierarchy Pages: 1 -->
<svg width="463pt" height="138pt"
 viewBox="0.00 0.00 463.00 138.00" xmlns="http://www.w3.org/2000/svg" xmlns:xlink="http://www.w3.org/1999/xlink">
<g id="graph0" class="graph" transform="scale(1 1) rotate(0) translate(4 134)">
<title>Graphical Class Hierarchy</title>
<!-- Node0 -->
<g id="Node000000" class="node">
<title>Node0</title>
<g id="a_Node000000"><a xlink:title=" ">
<polygon fill="#e0e0e0" stroke="#999999" points="86,-74 0,-74 0,-55 86,-55 86,-74"/>
<text text-anchor="middle" x="43" y="-62" font-family="Helvetica,sans-Serif" font-size="10.00">gr::sync_block</text>
</a>
</g>
</g>
<!-- Node1 -->
<g id="Node000001" class="node">
<title>Node1</title>
<g id="a_Node000001"><a xlink:href="classgr_1_1ErTools_1_1AWGN.html" target="_top" xlink:title="&lt;+description of block+&gt;">
<polygon fill="white" stroke="#666666" points="241.5,-130 137.5,-130 137.5,-111 241.5,-111 241.5,-130"/>
<text text-anchor="middle" x="189.5" y="-118" font-family="Helvetica,sans-Serif" font-size="10.00">gr::ErTools::AWGN</text>
</a>
</g>
</g>
<!-- Node0&#45;&gt;Node1 -->
<g id="edge1_Node000000_Node000001" class="edge">
<title>Node0&#45;&gt;Node1</title>
<g id="a_edge1_Node000000_Node000001"><a xlink:title=" ">
<path fill="none" stroke="#63b8ff" d="M70.34,-78.88C85.21,-86.6 104.3,-95.86 122,-102.5 130.4,-105.65 139.58,-108.5 148.37,-110.95"/>
<polygon fill="#63b8ff" stroke="#63b8ff" points="71.72,-75.65 61.24,-74.07 68.45,-81.84 71.72,-75.65"/>
</a>
</g>
</g>
<!-- Node3 -->
<g id="Node000003" class="node">
<title>Node3</title>
<g id="a_Node000003"><a xlink:href="classgr_1_1ErTools_1_1AWGN__kanal.html" target="_top" xlink:title="&lt;+description of block+&gt;">
<polygon fill="white" stroke="#666666" points="257,-93 122,-93 122,-74 257,-74 257,-93"/>
<text text-anchor="middle" x="189.5" y="-81" font-family="Helvetica,sans-Serif" font-size="10.00">gr::ErTools::AWGN_kanal</text>
</a>
</g>
</g>
<!-- Node0&#45;&gt;Node3 -->
<g id="edge3_Node000000_Node000003" class="edge">
<title>Node0&#45;&gt;Node3</title>
<g id="a_edge3_Node000000_Node000003"><a xlink:title=" ">
<path fill="none" stroke="#63b8ff" d="M96.12,-71.35C104.46,-72.45 113.18,-73.6 121.79,-74.73"/>
<polygon fill="#63b8ff" stroke="#63b8ff" points="96.55,-67.88 86.18,-70.05 95.64,-74.82 96.55,-67.88"/>
</a>
</g>
</g>
<!-- Node5 -->
<g id="Node000005" class="node">
<title>Node5</title>
<g id="a_Node000005"><a xlink:href="classgr_1_1ErTools_1_1BER.html" target="_top" xlink:title="&lt;+description of block+&gt;">
<polygon fill="white" stroke="#666666" points="235.5,-56 143.5,-56 143.5,-37 235.5,-37 235.5,-56"/>
<text text-anchor="middle" x="189.5" y="-44" font-family="Helvetica,sans-Serif" font-size="10.00">gr::ErTools::BER</text>
</a>
</g>
</g>
<!-- Node0&#45;&gt;Node5 -->
<g id="edge5_Node000000_Node000005" class="edge">
<title>Node0&#45;&gt;Node5</title>
<g id="a_edge5_Node000000_Node000005"><a xlink:title=" ">
<path fill="none" stroke="#63b8ff" d="M96.14,-58C111.64,-56.07 128.49,-53.98 143.49,-52.11"/>
<polygon fill="#63b8ff" stroke="#63b8ff" points="95.67,-54.54 86.18,-59.25 96.54,-61.48 95.67,-54.54"/>
</a>
</g>
</g>
<!-- Node7 -->
<g id="Node000007" class="node">
<title>Node7</title>
<g id="a_Node000007"><a xlink:href="classgr_1_1ErTools_1_1SER.html" target="_top" xlink:title="&lt;+description of block+&gt;">
<polygon fill="white" stroke="#666666" points="235.5,-19 143.5,-19 143.5,0 235.5,0 235.5,-19"/>
<text text-anchor="middle" x="189.5" y="-7" font-family="Helvetica,sans-Serif" font-size="10.00">gr::ErTools::SER</text>
</a>
</g>
</g>
<!-- Node0&#45;&gt;Node7 -->
<g id="edge7_Node000000_Node000007" class="edge">
<title>Node0&#45;&gt;Node7</title>
<g id="a_edge7_Node000000_Node000007"><a xlink:title=" ">
<path fill="none" stroke="#63b8ff" d="M71.64,-50.48C86.36,-43.33 104.91,-34.84 122,-28.5 131.34,-25.03 141.62,-21.82 151.24,-19.05"/>
<polygon fill="#63b8ff" stroke="#63b8ff" points="70,-47.39 62.57,-54.94 73.09,-53.67 70,-47.39"/>
</a>
</g>
</g>
<!-- Node2 -->
<g id="Node000002" class="node">
<title>Node2</title>
<g id="a_Node000002"><a xlink:href="classgr_1_1ErTools_1_1AWGN__impl.html" target="_top" xlink:title=" ">
<polygon fill="white" stroke="#666666" points="439.5,-130 308.5,-130 308.5,-111 439.5,-111 439.5,-130"/>
<text text-anchor="middle" x="374" y="-118" font-family="Helvetica,sans-Serif" font-size="10.00">gr::ErTools::AWGN_impl</text>
</a>
</g>
</g>
<!-- Node1&#45;&gt;Node2 -->
<g id="edge2_Node000001_Node000002" class="edge">
<title>Node1&#45;&gt;Node2</title>
<g id="a_edge2_Node000001_Node000002"><a xlink:title=" ">
<path fill="none" stroke="#63b8ff" d="M251.99,-120.5C270.14,-120.5 290.05,-120.5 308.39,-120.5"/>
<polygon fill="#63b8ff" stroke="#63b8ff" points="251.82,-117 241.82,-120.5 251.82,-124 251.82,-117"/>
</a>
</g>
</g>
<!-- Node4 -->
<g id="Node000004" class="node">
<title>Node4</title>
<g id="a_Node000004"><a xlink:href="classgr_1_1ErTools_1_1AWGN__kanal__impl.html" target="_top" xlink:title=" ">
<polygon fill="white" stroke="#666666" points="455,-93 293,-93 293,-74 455,-74 455,-93"/>
<text text-anchor="middle" x="374" y="-81" font-family="Helvetica,sans-Serif" font-size="10.00">gr::ErTools::AWGN_kanal_impl</text>
</a>
</g>
</g>
<!-- Node3&#45;&gt;Node4 -->
<g id="edge4_Node000003_Node000004" class="edge">
<title>Node3&#45;&gt;Node4</title>
<g id="a_edge4_Node000003_Node000004"><a xlink:title=" ">
<path fill="none" stroke="#63b8ff" d="M267.35,-83.5C275.79,-83.5 284.4,-83.5 292.88,-83.5"/>
<polygon fill="#63b8ff" stroke="#63b8ff" points="267.16,-80 257.16,-83.5 267.16,-87 267.16,-80"/>
</a>
</g>
</g>
<!-- Node6 -->
<g id="Node000006" class="node">
<title>Node6</title>
<g id="a_Node000006"><a xlink:href="classgr_1_1ErTools_1_1BER__impl.html" target="_top" xlink:title=" ">
<polygon fill="white" stroke="#666666" points="433.5,-56 314.5,-56 314.5,-37 433.5,-37 433.5,-56"/>
<text text-anchor="middle" x="374" y="-44" font-family="Helvetica,sans-Serif" font-size="10.00">gr::ErTools::BER_impl</text>
</a>
</g>
</g>
<!-- Node5&#45;&gt;Node6 -->
<g id="edge6_Node000005_Node000006" class="edge">
<title>Node5&#45;&gt;Node6</title>
<g id="a_edge6_Node000005_Node000006"><a xlink:title=" ">
<path fill="none" stroke="#63b8ff" d="M245.65,-46.5C267.33,-46.5 292.26,-46.5 314.28,-46.5"/>
<polygon fill="#63b8ff" stroke="#63b8ff" points="245.61,-43 235.61,-46.5 245.61,-50 245.61,-43"/>
</a>
</g>
</g>
<!-- Node8 -->
<g id="Node000008" class="node">
<title>Node8</title>
<g id="a_Node000008"><a xlink:href="classgr_1_1ErTools_1_1SER__impl.html" target="_top" xlink:title=" ">
<polygon fill="white" stroke="#666666" points="433.5,-19 314.5,-19 314.5,0 433.5,0 433.5,-19"/>
<text text-anchor="middle" x="374" y="-7" font-family="Helvetica,sans-Serif" font-size="10.00">gr::ErTools::SER_impl</text>
</a>
</g>
</g>
<!-- Node7&#45;&gt;Node8 -->
<g id="edge8_Node000007_Node000008" class="edge">
<title>Node7&#45;&gt;Node8</title>
<g id="a_edge8_Node000007_Node000008"><a xlink:title=" ">
<path fill="none" stroke="#63b8ff" d="M245.65,-9.5C267.33,-9.5 292.26,-9.5 314.28,-9.5"/>
<polygon fill="#63b8ff" stroke="#63b8ff" points="245.61,-6 235.61,-9.5 245.61,-13 245.61,-6"/>
</a>
</g>
</g>
</g>
</svg>
