<?xml version="1.0" encoding="UTF-8" standalone="no"?>
<!DOCTYPE svg PUBLIC "-//W3C//DTD SVG 1.1//EN"
 "http://www.w3.org/Graphics/SVG/1.1/DTD/svg11.dtd">
<!-- Generated by graphviz version 2.43.0 (0)
 -->
<!-- Title: Graphical Class Hierarchy Pages: 1 -->
<svg width="444pt" height="187pt"
 viewBox="0.00 0.00 444.00 186.50" xmlns="http://www.w3.org/2000/svg" xmlns:xlink="http://www.w3.org/1999/xlink">
<g id="graph0" class="graph" transform="scale(1 1) rotate(0) translate(4 182.5)">
<title>Graphical Class Hierarchy</title>
<!-- Node0 -->
<g id="Node000000" class="node">
<title>Node0</title>
<g id="a_Node000000"><a xlink:title=" ">
<polygon fill="#e0e0e0" stroke="#999999" points="86,-104.5 0,-104.5 0,-85.5 86,-85.5 86,-104.5"/>
<text text-anchor="middle" x="43" y="-92.5" font-family="Helvetica,sans-Serif" font-size="10.00">gr::sync_block</text>
</a>
</g>
</g>
<!-- Node1 -->
<g id="Node000001" class="node">
<title>Node1</title>
<g id="a_Node000001"><a xlink:href="classgr_1_1ErTools_1_1AWGN.html" target="_top" xlink:title="&lt;+description of block+&gt;">
<polygon fill="white" stroke="#666666" points="247.5,-178.5 143.5,-178.5 143.5,-159.5 247.5,-159.5 247.5,-178.5"/>
<text text-anchor="middle" x="195.5" y="-166.5" font-family="Helvetica,sans-Serif" font-size="10.00">gr::ErTools::AWGN</text>
</a>
</g>
</g>
<!-- Node0&#45;&gt;Node1 -->
<g id="edge1_Node000000_Node000001" class="edge">
<title>Node0&#45;&gt;Node1</title>
<g id="a_edge1_Node000000_Node000001"><a xlink:title=" ">
<path fill="none" stroke="#63b8ff" d="M62.76,-111.62C77.81,-124.13 99.99,-140.83 122,-151 129.3,-154.37 137.31,-157.17 145.27,-159.47"/>
<polygon fill="#63b8ff" stroke="#63b8ff" points="64.66,-108.64 54.78,-104.81 60.12,-113.96 64.66,-108.64"/>
</a>
</g>
</g>
<!-- Node3 -->
<g id="Node000003" class="node">
<title>Node3</title>
<g id="a_Node000003"><a xlink:href="classgr_1_1ErTools_1_1BER.html" target="_top" xlink:title="&lt;+description of block+&gt;">
<polygon fill="white" stroke="#666666" points="241.5,-141.5 149.5,-141.5 149.5,-122.5 241.5,-122.5 241.5,-141.5"/>
<text text-anchor="middle" x="195.5" y="-129.5" font-family="Helvetica,sans-Serif" font-size="10.00">gr::ErTools::BER</text>
</a>
</g>
</g>
<!-- Node0&#45;&gt;Node3 -->
<g id="edge3_Node000000_Node000003" class="edge">
<title>Node0&#45;&gt;Node3</title>
<g id="a_edge3_Node000000_Node000003"><a xlink:title=" ">
<path fill="none" stroke="#63b8ff" d="M92.51,-106.93C112.92,-111.94 136.36,-117.71 155.61,-122.44"/>
<polygon fill="#63b8ff" stroke="#63b8ff" points="93.3,-103.52 82.76,-104.53 91.63,-110.31 93.3,-103.52"/>
</a>
</g>
</g>
<!-- Node5 -->
<g id="Node000005" class="node">
<title>Node5</title>
<g id="a_Node000005"><a xlink:href="classgr_1_1ErTools_1_1MC.html" target="_top" xlink:title="&lt;+description of block+&gt;">
<polygon fill="white" stroke="#666666" points="240,-104.5 151,-104.5 151,-85.5 240,-85.5 240,-104.5"/>
<text text-anchor="middle" x="195.5" y="-92.5" font-family="Helvetica,sans-Serif" font-size="10.00">gr::ErTools::MC</text>
</a>
</g>
</g>
<!-- Node0&#45;&gt;Node5 -->
<g id="edge5_Node000000_Node000005" class="edge">
<title>Node0&#45;&gt;Node5</title>
<g id="a_edge5_Node000000_Node000005"><a xlink:title=" ">
<path fill="none" stroke="#63b8ff" d="M96.53,-95C114.3,-95 133.93,-95 150.92,-95"/>
<polygon fill="#63b8ff" stroke="#63b8ff" points="96.32,-91.5 86.32,-95 96.32,-98.5 96.32,-91.5"/>
</a>
</g>
</g>
<!-- Node7 -->
<g id="Node000007" class="node">
<title>Node7</title>
<g id="a_Node000007"><a xlink:href="classgr_1_1ErTools_1_1SER.html" target="_top" xlink:title="&lt;+description of block+&gt;">
<polygon fill="white" stroke="#666666" points="241.5,-67.5 149.5,-67.5 149.5,-48.5 241.5,-48.5 241.5,-67.5"/>
<text text-anchor="middle" x="195.5" y="-55.5" font-family="Helvetica,sans-Serif" font-size="10.00">gr::ErTools::SER</text>
</a>
</g>
</g>
<!-- Node0&#45;&gt;Node7 -->
<g id="edge7_Node000000_Node000007" class="edge">
<title>Node0&#45;&gt;Node7</title>
<g id="a_edge7_Node000000_Node000007"><a xlink:title=" ">
<path fill="none" stroke="#63b8ff" d="M92.51,-83.07C112.92,-78.06 136.36,-72.29 155.61,-67.56"/>
<polygon fill="#63b8ff" stroke="#63b8ff" points="91.63,-79.69 82.76,-85.47 93.3,-86.48 91.63,-79.69"/>
</a>
</g>
</g>
<!-- Node9 -->
<g id="Node000009" class="node">
<title>Node9</title>
<g id="a_Node000009"><a xlink:href="classgr_1_1ErTools_1_1Teoreticka__BER.html" target="_top" xlink:title="&lt;+description of block+&gt;">
<polygon fill="white" stroke="#666666" points="269,-27.5 122,-27.5 122,-8.5 269,-8.5 269,-27.5"/>
<text text-anchor="middle" x="195.5" y="-15.5" font-family="Helvetica,sans-Serif" font-size="10.00">gr::ErTools::Teoreticka_BER</text>
</a>
</g>
</g>
<!-- Node0&#45;&gt;Node9 -->
<g id="edge9_Node000000_Node000009" class="edge">
<title>Node0&#45;&gt;Node9</title>
<g id="a_edge9_Node000000_Node000009"><a xlink:title=" ">
<path fill="none" stroke="#63b8ff" d="M62.87,-78.62C77.98,-66.23 100.19,-49.6 122,-39 131.55,-34.36 142.31,-30.56 152.57,-27.52"/>
<polygon fill="#63b8ff" stroke="#63b8ff" points="60.26,-76.24 54.85,-85.35 64.76,-81.6 60.26,-76.24"/>
</a>
</g>
</g>
<!-- Node2 -->
<g id="Node000002" class="node">
<title>Node2</title>
<g id="a_Node000002"><a xlink:href="classgr_1_1ErTools_1_1AWGN__impl.html" target="_top" xlink:title=" ">
<polygon fill="white" stroke="#666666" points="436,-178.5 305,-178.5 305,-159.5 436,-159.5 436,-178.5"/>
<text text-anchor="middle" x="370.5" y="-166.5" font-family="Helvetica,sans-Serif" font-size="10.00">gr::ErTools::AWGN_impl</text>
</a>
</g>
</g>
<!-- Node1&#45;&gt;Node2 -->
<g id="edge2_Node000001_Node000002" class="edge">
<title>Node1&#45;&gt;Node2</title>
<g id="a_edge2_Node000001_Node000002"><a xlink:title=" ">
<path fill="none" stroke="#63b8ff" d="M258.19,-169C273.3,-169 289.5,-169 304.75,-169"/>
<polygon fill="#63b8ff" stroke="#63b8ff" points="257.94,-165.5 247.94,-169 257.94,-172.5 257.94,-165.5"/>
</a>
</g>
</g>
<!-- Node4 -->
<g id="Node000004" class="node">
<title>Node4</title>
<g id="a_Node000004"><a xlink:href="classgr_1_1ErTools_1_1BER__impl.html" target="_top" xlink:title=" ">
<polygon fill="white" stroke="#666666" points="430,-141.5 311,-141.5 311,-122.5 430,-122.5 430,-141.5"/>
<text text-anchor="middle" x="370.5" y="-129.5" font-family="Helvetica,sans-Serif" font-size="10.00">gr::ErTools::BER_impl</text>
</a>
</g>
</g>
<!-- Node3&#45;&gt;Node4 -->
<g id="edge4_Node000003_Node000004" class="edge">
<title>Node3&#45;&gt;Node4</title>
<g id="a_edge4_Node000003_Node000004"><a xlink:title=" ">
<path fill="none" stroke="#63b8ff" d="M251.69,-132C270.51,-132 291.61,-132 310.7,-132"/>
<polygon fill="#63b8ff" stroke="#63b8ff" points="251.5,-128.5 241.5,-132 251.5,-135.5 251.5,-128.5"/>
</a>
</g>
</g>
<!-- Node6 -->
<g id="Node000006" class="node">
<title>Node6</title>
<g id="a_Node000006"><a xlink:href="classgr_1_1ErTools_1_1MC__impl.html" target="_top" xlink:title=" ">
<polygon fill="white" stroke="#666666" points="428.5,-104.5 312.5,-104.5 312.5,-85.5 428.5,-85.5 428.5,-104.5"/>
<text text-anchor="middle" x="370.5" y="-92.5" font-family="Helvetica,sans-Serif" font-size="10.00">gr::ErTools::MC_impl</text>
</a>
</g>
</g>
<!-- Node5&#45;&gt;Node6 -->
<g id="edge6_Node000005_Node000006" class="edge">
<title>Node5&#45;&gt;Node6</title>
<g id="a_edge6_Node000005_Node000006"><a xlink:title=" ">
<path fill="none" stroke="#63b8ff" d="M250.21,-95C269.97,-95 292.4,-95 312.44,-95"/>
<polygon fill="#63b8ff" stroke="#63b8ff" points="250.16,-91.5 240.16,-95 250.16,-98.5 250.16,-91.5"/>
</a>
</g>
</g>
<!-- Node8 -->
<g id="Node000008" class="node">
<title>Node8</title>
<g id="a_Node000008"><a xlink:href="classgr_1_1ErTools_1_1SER__impl.html" target="_top" xlink:title=" ">
<polygon fill="white" stroke="#666666" points="430,-67.5 311,-67.5 311,-48.5 430,-48.5 430,-67.5"/>
<text text-anchor="middle" x="370.5" y="-55.5" font-family="Helvetica,sans-Serif" font-size="10.00">gr::ErTools::SER_impl</text>
</a>
</g>
</g>
<!-- Node7&#45;&gt;Node8 -->
<g id="edge8_Node000007_Node000008" class="edge">
<title>Node7&#45;&gt;Node8</title>
<g id="a_edge8_Node000007_Node000008"><a xlink:title=" ">
<path fill="none" stroke="#63b8ff" d="M251.69,-58C270.51,-58 291.61,-58 310.7,-58"/>
<polygon fill="#63b8ff" stroke="#63b8ff" points="251.5,-54.5 241.5,-58 251.5,-61.5 251.5,-54.5"/>
</a>
</g>
</g>
<!-- Node10 -->
<g id="Node000010" class="node">
<title>Node10</title>
<g id="a_Node000010"><a xlink:href="classgr_1_1ErTools_1_1Teoreticka__BER__impl.html" target="_top" xlink:title=" ">
<polygon fill="white" stroke="#666666" points="431.5,-30 309.5,-30 309.5,0 431.5,0 431.5,-30"/>
<text text-anchor="start" x="317.5" y="-18" font-family="Helvetica,sans-Serif" font-size="10.00">gr::ErTools::Teoreticka</text>
<text text-anchor="middle" x="370.5" y="-7" font-family="Helvetica,sans-Serif" font-size="10.00">_BER_impl</text>
</a>
</g>
</g>
<!-- Node9&#45;&gt;Node10 -->
<g id="edge10_Node000009_Node000010" class="edge">
<title>Node9&#45;&gt;Node10</title>
<g id="a_edge10_Node000009_Node000010"><a xlink:title=" ">
<path fill="none" stroke="#63b8ff" d="M279.24,-16.57C289.4,-16.39 299.64,-16.21 309.38,-16.04"/>
<polygon fill="#63b8ff" stroke="#63b8ff" points="279.05,-13.07 269.12,-16.74 279.17,-20.07 279.05,-13.07"/>
</a>
</g>
</g>
</g>
</svg>
