<?xml version="1.0" encoding="UTF-8" standalone="no"?>
<!DOCTYPE svg PUBLIC "-//W3C//DTD SVG 1.1//EN"
 "http://www.w3.org/Graphics/SVG/1.1/DTD/svg11.dtd">
<!-- Generated by graphviz version 2.43.0 (0)
 -->
<!-- Title: Graphical Class Hierarchy Pages: 1 -->
<svg width="475pt" height="236pt"
 viewBox="0.00 0.00 475.00 235.50" xmlns="http://www.w3.org/2000/svg" xmlns:xlink="http://www.w3.org/1999/xlink">
<g id="graph0" class="graph" transform="scale(1 1) rotate(0) translate(4 231.5)">
<title>Graphical Class Hierarchy</title>
<!-- Node0 -->
<g id="Node000000" class="node">
<title>Node0</title>
<g id="a_Node000000"><a xlink:title=" ">
<polygon fill="#e0e0e0" stroke="#999999" points="86,-131.5 0,-131.5 0,-112.5 86,-112.5 86,-131.5"/>
<text text-anchor="middle" x="43" y="-119.5" font-family="Helvetica,sans-Serif" font-size="10.00">gr::sync_block</text>
</a>
</g>
</g>
<!-- Node1 -->
<g id="Node000001" class="node">
<title>Node1</title>
<g id="a_Node000001"><a xlink:href="classgr_1_1ErTools_1_1AWGN.html" target="_top" xlink:title="&lt;+description of block+&gt;">
<polygon fill="white" stroke="#666666" points="247.5,-227.5 143.5,-227.5 143.5,-208.5 247.5,-208.5 247.5,-227.5"/>
<text text-anchor="middle" x="195.5" y="-215.5" font-family="Helvetica,sans-Serif" font-size="10.00">gr::ErTools::AWGN</text>
</a>
</g>
</g>
<!-- Node0&#45;&gt;Node1 -->
<g id="edge1_Node000000_Node000001" class="edge">
<title>Node0&#45;&gt;Node1</title>
<g id="a_edge1_Node000000_Node000001"><a xlink:title=" ">
<path fill="none" stroke="#63b8ff" d="M57.18,-140C71.24,-157.91 95.17,-184.84 122,-200 128.55,-203.7 135.85,-206.65 143.23,-208.99"/>
<polygon fill="#63b8ff" stroke="#63b8ff" points="59.6,-137.41 50.76,-131.57 54.03,-141.65 59.6,-137.41"/>
</a>
</g>
</g>
<!-- Node3 -->
<g id="Node000003" class="node">
<title>Node3</title>
<g id="a_Node000003"><a xlink:href="classgr_1_1ErTools_1_1AWGN__kanal.html" target="_top" xlink:title="&lt;+description of block+&gt;">
<polygon fill="white" stroke="#666666" points="263,-190.5 128,-190.5 128,-171.5 263,-171.5 263,-190.5"/>
<text text-anchor="middle" x="195.5" y="-178.5" font-family="Helvetica,sans-Serif" font-size="10.00">gr::ErTools::AWGN_kanal</text>
</a>
</g>
</g>
<!-- Node0&#45;&gt;Node3 -->
<g id="edge3_Node000000_Node000003" class="edge">
<title>Node0&#45;&gt;Node3</title>
<g id="a_edge3_Node000000_Node000003"><a xlink:title=" ">
<path fill="none" stroke="#63b8ff" d="M68.29,-136.71C83.33,-145.33 103.29,-155.88 122,-163 130.48,-166.23 139.75,-169.04 148.73,-171.42"/>
<polygon fill="#63b8ff" stroke="#63b8ff" points="70.01,-133.66 59.61,-131.65 66.48,-139.71 70.01,-133.66"/>
</a>
</g>
</g>
<!-- Node5 -->
<g id="Node000005" class="node">
<title>Node5</title>
<g id="a_Node000005"><a xlink:href="classgr_1_1ErTools_1_1BER.html" target="_top" xlink:title="&lt;+description of block+&gt;">
<polygon fill="white" stroke="#666666" points="241.5,-153.5 149.5,-153.5 149.5,-134.5 241.5,-134.5 241.5,-153.5"/>
<text text-anchor="middle" x="195.5" y="-141.5" font-family="Helvetica,sans-Serif" font-size="10.00">gr::ErTools::BER</text>
</a>
</g>
</g>
<!-- Node0&#45;&gt;Node5 -->
<g id="edge5_Node000000_Node000005" class="edge">
<title>Node0&#45;&gt;Node5</title>
<g id="a_edge5_Node000000_Node000005"><a xlink:title=" ">
<path fill="none" stroke="#63b8ff" d="M96.26,-129.64C113.55,-132.17 132.63,-134.96 149.34,-137.4"/>
<polygon fill="#63b8ff" stroke="#63b8ff" points="96.72,-126.17 86.32,-128.19 95.71,-133.1 96.72,-126.17"/>
</a>
</g>
</g>
<!-- Node7 -->
<g id="Node000007" class="node">
<title>Node7</title>
<g id="a_Node000007"><a xlink:href="classgr_1_1ErTools_1_1Master__Hodiny.html" target="_top" xlink:title="&lt;+description of block+&gt;">
<polygon fill="white" stroke="#666666" points="249,-116 142,-116 142,-86 249,-86 249,-116"/>
<text text-anchor="start" x="150" y="-104" font-family="Helvetica,sans-Serif" font-size="10.00">gr::ErTools::Master</text>
<text text-anchor="middle" x="195.5" y="-93" font-family="Helvetica,sans-Serif" font-size="10.00">_Hodiny</text>
</a>
</g>
</g>
<!-- Node0&#45;&gt;Node7 -->
<g id="edge7_Node000000_Node000007" class="edge">
<title>Node0&#45;&gt;Node7</title>
<g id="a_edge7_Node000000_Node000007"><a xlink:title=" ">
<path fill="none" stroke="#63b8ff" d="M96.28,-114.71C111,-112.65 127.02,-110.42 141.77,-108.36"/>
<polygon fill="#63b8ff" stroke="#63b8ff" points="95.74,-111.25 86.32,-116.09 96.71,-118.18 95.74,-111.25"/>
</a>
</g>
</g>
<!-- Node9 -->
<g id="Node000009" class="node">
<title>Node9</title>
<g id="a_Node000009"><a xlink:href="classgr_1_1ErTools_1_1SER.html" target="_top" xlink:title="&lt;+description of block+&gt;">
<polygon fill="white" stroke="#666666" points="241.5,-67.5 149.5,-67.5 149.5,-48.5 241.5,-48.5 241.5,-67.5"/>
<text text-anchor="middle" x="195.5" y="-55.5" font-family="Helvetica,sans-Serif" font-size="10.00">gr::ErTools::SER</text>
</a>
</g>
</g>
<!-- Node0&#45;&gt;Node9 -->
<g id="edge9_Node000000_Node000009" class="edge">
<title>Node0&#45;&gt;Node9</title>
<g id="a_edge9_Node000000_Node000009"><a xlink:title=" ">
<path fill="none" stroke="#63b8ff" d="M66.73,-106.72C81.86,-97.09 102.48,-85.02 122,-77 131.03,-73.29 140.99,-70.13 150.56,-67.5"/>
<polygon fill="#63b8ff" stroke="#63b8ff" points="64.55,-103.95 58.07,-112.33 68.36,-109.82 64.55,-103.95"/>
</a>
</g>
</g>
<!-- Node11 -->
<g id="Node000011" class="node">
<title>Node11</title>
<g id="a_Node000011"><a xlink:href="classgr_1_1ErTools_1_1Teoreticka__BER.html" target="_top" xlink:title="&lt;+description of block+&gt;">
<polygon fill="white" stroke="#666666" points="269,-27.5 122,-27.5 122,-8.5 269,-8.5 269,-27.5"/>
<text text-anchor="middle" x="195.5" y="-15.5" font-family="Helvetica,sans-Serif" font-size="10.00">gr::ErTools::Teoreticka_BER</text>
</a>
</g>
</g>
<!-- Node0&#45;&gt;Node11 -->
<g id="edge11_Node000000_Node000011" class="edge">
<title>Node0&#45;&gt;Node11</title>
<g id="a_edge11_Node000000_Node000011"><a xlink:title=" ">
<path fill="none" stroke="#63b8ff" d="M56.23,-104.15C70.07,-85.28 94.32,-55.94 122,-39 129.82,-34.21 138.79,-30.47 147.69,-27.57"/>
<polygon fill="#63b8ff" stroke="#63b8ff" points="53.25,-102.3 50.3,-112.48 58.95,-106.36 53.25,-102.3"/>
</a>
</g>
</g>
<!-- Node2 -->
<g id="Node000002" class="node">
<title>Node2</title>
<g id="a_Node000002"><a xlink:href="classgr_1_1ErTools_1_1AWGN__impl.html" target="_top" xlink:title=" ">
<polygon fill="white" stroke="#666666" points="451.5,-227.5 320.5,-227.5 320.5,-208.5 451.5,-208.5 451.5,-227.5"/>
<text text-anchor="middle" x="386" y="-215.5" font-family="Helvetica,sans-Serif" font-size="10.00">gr::ErTools::AWGN_impl</text>
</a>
</g>
</g>
<!-- Node1&#45;&gt;Node2 -->
<g id="edge2_Node000001_Node000002" class="edge">
<title>Node1&#45;&gt;Node2</title>
<g id="a_edge2_Node000001_Node000002"><a xlink:title=" ">
<path fill="none" stroke="#63b8ff" d="M257.77,-218C277.82,-218 300.15,-218 320.44,-218"/>
<polygon fill="#63b8ff" stroke="#63b8ff" points="257.51,-214.5 247.51,-218 257.51,-221.5 257.51,-214.5"/>
</a>
</g>
</g>
<!-- Node4 -->
<g id="Node000004" class="node">
<title>Node4</title>
<g id="a_Node000004"><a xlink:href="classgr_1_1ErTools_1_1AWGN__kanal__impl.html" target="_top" xlink:title=" ">
<polygon fill="white" stroke="#666666" points="467,-190.5 305,-190.5 305,-171.5 467,-171.5 467,-190.5"/>
<text text-anchor="middle" x="386" y="-178.5" font-family="Helvetica,sans-Serif" font-size="10.00">gr::ErTools::AWGN_kanal_impl</text>
</a>
</g>
</g>
<!-- Node3&#45;&gt;Node4 -->
<g id="edge4_Node000003_Node000004" class="edge">
<title>Node3&#45;&gt;Node4</title>
<g id="a_edge4_Node000003_Node000004"><a xlink:title=" ">
<path fill="none" stroke="#63b8ff" d="M273.45,-181C283.78,-181 294.41,-181 304.8,-181"/>
<polygon fill="#63b8ff" stroke="#63b8ff" points="273.22,-177.5 263.22,-181 273.22,-184.5 273.22,-177.5"/>
</a>
</g>
</g>
<!-- Node6 -->
<g id="Node000006" class="node">
<title>Node6</title>
<g id="a_Node000006"><a xlink:href="classgr_1_1ErTools_1_1BER__impl.html" target="_top" xlink:title=" ">
<polygon fill="white" stroke="#666666" points="445.5,-153.5 326.5,-153.5 326.5,-134.5 445.5,-134.5 445.5,-153.5"/>
<text text-anchor="middle" x="386" y="-141.5" font-family="Helvetica,sans-Serif" font-size="10.00">gr::ErTools::BER_impl</text>
</a>
</g>
</g>
<!-- Node5&#45;&gt;Node6 -->
<g id="edge6_Node000005_Node000006" class="edge">
<title>Node5&#45;&gt;Node6</title>
<g id="a_edge6_Node000005_Node000006"><a xlink:title=" ">
<path fill="none" stroke="#63b8ff" d="M251.77,-144C275.19,-144 302.52,-144 326.3,-144"/>
<polygon fill="#63b8ff" stroke="#63b8ff" points="251.65,-140.5 241.65,-144 251.65,-147.5 251.65,-140.5"/>
</a>
</g>
</g>
<!-- Node8 -->
<g id="Node000008" class="node">
<title>Node8</title>
<g id="a_Node000008"><a xlink:href="classgr_1_1ErTools_1_1Master__Hodiny__impl.html" target="_top" xlink:title=" ">
<polygon fill="white" stroke="#666666" points="439.5,-116 332.5,-116 332.5,-86 439.5,-86 439.5,-116"/>
<text text-anchor="start" x="340.5" y="-104" font-family="Helvetica,sans-Serif" font-size="10.00">gr::ErTools::Master</text>
<text text-anchor="middle" x="386" y="-93" font-family="Helvetica,sans-Serif" font-size="10.00">_Hodiny_impl</text>
</a>
</g>
</g>
<!-- Node7&#45;&gt;Node8 -->
<g id="edge8_Node000007_Node000008" class="edge">
<title>Node7&#45;&gt;Node8</title>
<g id="a_edge8_Node000007_Node000008"><a xlink:title=" ">
<path fill="none" stroke="#63b8ff" d="M259.32,-101C283.04,-101 309.76,-101 332.45,-101"/>
<polygon fill="#63b8ff" stroke="#63b8ff" points="259.01,-97.5 249.01,-101 259.01,-104.5 259.01,-97.5"/>
</a>
</g>
</g>
<!-- Node10 -->
<g id="Node000010" class="node">
<title>Node10</title>
<g id="a_Node000010"><a xlink:href="classgr_1_1ErTools_1_1SER__impl.html" target="_top" xlink:title=" ">
<polygon fill="white" stroke="#666666" points="445.5,-67.5 326.5,-67.5 326.5,-48.5 445.5,-48.5 445.5,-67.5"/>
<text text-anchor="middle" x="386" y="-55.5" font-family="Helvetica,sans-Serif" font-size="10.00">gr::ErTools::SER_impl</text>
</a>
</g>
</g>
<!-- Node9&#45;&gt;Node10 -->
<g id="edge10_Node000009_Node000010" class="edge">
<title>Node9&#45;&gt;Node10</title>
<g id="a_edge10_Node000009_Node000010"><a xlink:title=" ">
<path fill="none" stroke="#63b8ff" d="M251.77,-58C275.19,-58 302.52,-58 326.3,-58"/>
<polygon fill="#63b8ff" stroke="#63b8ff" points="251.65,-54.5 241.65,-58 251.65,-61.5 251.65,-54.5"/>
</a>
</g>
</g>
<!-- Node12 -->
<g id="Node000012" class="node">
<title>Node12</title>
<g id="a_Node000012"><a xlink:href="classgr_1_1ErTools_1_1Teoreticka__BER__impl.html" target="_top" xlink:title=" ">
<polygon fill="white" stroke="#666666" points="447,-30 325,-30 325,0 447,0 447,-30"/>
<text text-anchor="start" x="333" y="-18" font-family="Helvetica,sans-Serif" font-size="10.00">gr::ErTools::Teoreticka</text>
<text text-anchor="middle" x="386" y="-7" font-family="Helvetica,sans-Serif" font-size="10.00">_BER_impl</text>
</a>
</g>
</g>
<!-- Node11&#45;&gt;Node12 -->
<g id="edge12_Node000011_Node000012" class="edge">
<title>Node11&#45;&gt;Node12</title>
<g id="a_edge12_Node000011_Node000012"><a xlink:title=" ">
<path fill="none" stroke="#63b8ff" d="M279.16,-16.68C294.57,-16.44 310.39,-16.19 324.96,-15.96"/>
<polygon fill="#63b8ff" stroke="#63b8ff" points="279.05,-13.19 269.11,-16.84 279.16,-20.18 279.05,-13.19"/>
</a>
</g>
</g>
</g>
</svg>
