<?xml version="1.0" encoding="UTF-8" standalone="no"?>
<!DOCTYPE svg PUBLIC "-//W3C//DTD SVG 1.1//EN"
 "http://www.w3.org/Graphics/SVG/1.1/DTD/svg11.dtd">
<!-- Generated by graphviz version 2.43.0 (0)
 -->
<!-- Title: Graphical Class Hierarchy Pages: 1 -->
<svg width="437pt" height="64pt"
 viewBox="0.00 0.00 437.00 64.00" xmlns="http://www.w3.org/2000/svg" xmlns:xlink="http://www.w3.org/1999/xlink">
<g id="graph0" class="graph" transform="scale(1 1) rotate(0) translate(4 60)">
<title>Graphical Class Hierarchy</title>
<!-- Node0 -->
<g id="Node000000" class="node">
<title>Node0</title>
<g id="a_Node000000"><a xlink:title=" ">
<polygon fill="#e0e0e0" stroke="#999999" points="86,-37 0,-37 0,-18 86,-18 86,-37"/>
<text text-anchor="middle" x="43" y="-25" font-family="Helvetica,sans-Serif" font-size="10.00">gr::sync_block</text>
</a>
</g>
</g>
<!-- Node1 -->
<g id="Node000001" class="node">
<title>Node1</title>
<g id="a_Node000001"><a xlink:href="classgr_1_1ErTools_1_1BER__moje.html" target="_top" xlink:title="&lt;+description of block+&gt;">
<polygon fill="white" stroke="#666666" points="244,-56 122,-56 122,-37 244,-37 244,-56"/>
<text text-anchor="middle" x="183" y="-44" font-family="Helvetica,sans-Serif" font-size="10.00">gr::ErTools::BER_moje</text>
</a>
</g>
</g>
<!-- Node0&#45;&gt;Node1 -->
<g id="edge1_Node000000_Node000001" class="edge">
<title>Node0&#45;&gt;Node1</title>
<g id="a_edge1_Node000000_Node000001"><a xlink:title=" ">
<path fill="none" stroke="#63b8ff" d="M96.16,-34.68C104.54,-35.84 113.27,-37.04 121.82,-38.21"/>
<polygon fill="#63b8ff" stroke="#63b8ff" points="96.54,-31.2 86.15,-33.3 95.58,-38.14 96.54,-31.2"/>
</a>
</g>
</g>
<!-- Node3 -->
<g id="Node000003" class="node">
<title>Node3</title>
<g id="a_Node000003"><a xlink:href="classgr_1_1ErTools_1_1BER__sync.html" target="_top" xlink:title="&lt;+description of block+&gt;">
<polygon fill="white" stroke="#666666" points="243,-19 123,-19 123,0 243,0 243,-19"/>
<text text-anchor="middle" x="183" y="-7" font-family="Helvetica,sans-Serif" font-size="10.00">gr::ErTools::BER_sync</text>
</a>
</g>
</g>
<!-- Node0&#45;&gt;Node3 -->
<g id="edge3_Node000000_Node000003" class="edge">
<title>Node0&#45;&gt;Node3</title>
<g id="a_edge3_Node000000_Node000003"><a xlink:title=" ">
<path fill="none" stroke="#63b8ff" d="M96.17,-20.7C104.87,-19.56 113.96,-18.37 122.83,-17.22"/>
<polygon fill="#63b8ff" stroke="#63b8ff" points="95.62,-17.24 86.15,-22 96.52,-24.18 95.62,-17.24"/>
</a>
</g>
</g>
<!-- Node2 -->
<g id="Node000002" class="node">
<title>Node2</title>
<g id="a_Node000002"><a xlink:href="classgr_1_1ErTools_1_1BER__moje__impl.html" target="_top" xlink:title=" ">
<polygon fill="white" stroke="#666666" points="429,-56 280,-56 280,-37 429,-37 429,-56"/>
<text text-anchor="middle" x="354.5" y="-44" font-family="Helvetica,sans-Serif" font-size="10.00">gr::ErTools::BER_moje_impl</text>
</a>
</g>
</g>
<!-- Node1&#45;&gt;Node2 -->
<g id="edge2_Node000001_Node000002" class="edge">
<title>Node1&#45;&gt;Node2</title>
<g id="a_edge2_Node000001_Node000002"><a xlink:title=" ">
<path fill="none" stroke="#63b8ff" d="M254.36,-46.5C262.76,-46.5 271.36,-46.5 279.8,-46.5"/>
<polygon fill="#63b8ff" stroke="#63b8ff" points="254.24,-43 244.24,-46.5 254.24,-50 254.24,-43"/>
</a>
</g>
</g>
<!-- Node4 -->
<g id="Node000004" class="node">
<title>Node4</title>
<g id="a_Node000004"><a xlink:href="classgr_1_1ErTools_1_1BER__sync__impl.html" target="_top" xlink:title=" ">
<polygon fill="white" stroke="#666666" points="428,-19 281,-19 281,0 428,0 428,-19"/>
<text text-anchor="middle" x="354.5" y="-7" font-family="Helvetica,sans-Serif" font-size="10.00">gr::ErTools::BER_sync_impl</text>
</a>
</g>
</g>
<!-- Node3&#45;&gt;Node4 -->
<g id="edge4_Node000003_Node000004" class="edge">
<title>Node3&#45;&gt;Node4</title>
<g id="a_edge4_Node000003_Node000004"><a xlink:title=" ">
<path fill="none" stroke="#63b8ff" d="M253.38,-9.5C262.43,-9.5 271.72,-9.5 280.83,-9.5"/>
<polygon fill="#63b8ff" stroke="#63b8ff" points="253.28,-6 243.28,-9.5 253.28,-13 253.28,-6"/>
</a>
</g>
</g>
</g>
</svg>
