<?xml version="1.0" encoding="UTF-8" standalone="no"?>
<!DOCTYPE svg PUBLIC "-//W3C//DTD SVG 1.1//EN"
 "http://www.w3.org/Graphics/SVG/1.1/DTD/svg11.dtd">
<!-- Generated by graphviz version 2.43.0 (0)
 -->
<!-- Title: Graphical Class Hierarchy Pages: 1 -->
<svg width="437pt" height="175pt"
 viewBox="0.00 0.00 437.00 175.00" xmlns="http://www.w3.org/2000/svg" xmlns:xlink="http://www.w3.org/1999/xlink">
<g id="graph0" class="graph" transform="scale(1 1) rotate(0) translate(4 171)">
<title>Graphical Class Hierarchy</title>
<!-- Node0 -->
<g id="Node000000" class="node">
<title>Node0</title>
<g id="a_Node000000"><a xlink:title=" ">
<polygon fill="#e0e0e0" stroke="#999999" points="86,-93 0,-93 0,-74 86,-74 86,-93"/>
<text text-anchor="middle" x="43" y="-81" font-family="Helvetica,sans-Serif" font-size="10.00">gr::sync_block</text>
</a>
</g>
</g>
<!-- Node1 -->
<g id="Node000001" class="node">
<title>Node1</title>
<g id="a_Node000001"><a xlink:href="classgr_1_1ErTools_1_1BER__moje.html" target="_top" xlink:title="&lt;+description of block+&gt;">
<polygon fill="white" stroke="#666666" points="244,-167 122,-167 122,-148 244,-148 244,-167"/>
<text text-anchor="middle" x="183" y="-155" font-family="Helvetica,sans-Serif" font-size="10.00">gr::ErTools::BER_moje</text>
</a>
</g>
</g>
<!-- Node0&#45;&gt;Node1 -->
<g id="edge1_Node000000_Node000001" class="edge">
<title>Node0&#45;&gt;Node1</title>
<g id="a_edge1_Node000000_Node000001"><a xlink:title=" ">
<path fill="none" stroke="#63b8ff" d="M62.9,-99.82C78.03,-112.18 100.24,-128.8 122,-139.5 128.64,-142.76 135.98,-145.56 143.19,-147.92"/>
<polygon fill="#63b8ff" stroke="#63b8ff" points="64.79,-96.84 54.87,-93.12 60.3,-102.21 64.79,-96.84"/>
</a>
</g>
</g>
<!-- Node3 -->
<g id="Node000003" class="node">
<title>Node3</title>
<g id="a_Node000003"><a xlink:href="classgr_1_1ErTools_1_1BER__sync.html" target="_top" xlink:title="&lt;+description of block+&gt;">
<polygon fill="white" stroke="#666666" points="243,-130 123,-130 123,-111 243,-111 243,-130"/>
<text text-anchor="middle" x="183" y="-118" font-family="Helvetica,sans-Serif" font-size="10.00">gr::ErTools::BER_sync</text>
</a>
</g>
</g>
<!-- Node0&#45;&gt;Node3 -->
<g id="edge3_Node000000_Node000003" class="edge">
<title>Node0&#45;&gt;Node3</title>
<g id="a_edge3_Node000000_Node000003"><a xlink:title=" ">
<path fill="none" stroke="#63b8ff" d="M89.21,-95.62C107.67,-100.57 128.72,-106.22 146.1,-110.88"/>
<polygon fill="#63b8ff" stroke="#63b8ff" points="90.1,-92.24 79.54,-93.03 88.29,-99 90.1,-92.24"/>
</a>
</g>
</g>
<!-- Node5 -->
<g id="Node000005" class="node">
<title>Node5</title>
<g id="a_Node000005"><a xlink:href="classgr_1_1ErTools_1_1PrintChar.html" target="_top" xlink:title="&lt;+description of block+&gt;">
<polygon fill="white" stroke="#666666" points="242,-93 124,-93 124,-74 242,-74 242,-93"/>
<text text-anchor="middle" x="183" y="-81" font-family="Helvetica,sans-Serif" font-size="10.00">gr::ErTools::PrintChar</text>
</a>
</g>
</g>
<!-- Node0&#45;&gt;Node5 -->
<g id="edge5_Node000000_Node000005" class="edge">
<title>Node0&#45;&gt;Node5</title>
<g id="a_edge5_Node000000_Node000005"><a xlink:title=" ">
<path fill="none" stroke="#63b8ff" d="M96.45,-83.5C105.4,-83.5 114.75,-83.5 123.84,-83.5"/>
<polygon fill="#63b8ff" stroke="#63b8ff" points="96.15,-80 86.15,-83.5 96.15,-87 96.15,-80"/>
</a>
</g>
</g>
<!-- Node7 -->
<g id="Node000007" class="node">
<title>Node7</title>
<g id="a_Node000007"><a xlink:href="classgr_1_1ErTools_1_1PrintFloat.html" target="_top" xlink:title="&lt;+description of block+&gt;">
<polygon fill="white" stroke="#666666" points="243,-56 123,-56 123,-37 243,-37 243,-56"/>
<text text-anchor="middle" x="183" y="-44" font-family="Helvetica,sans-Serif" font-size="10.00">gr::ErTools::PrintFloat</text>
</a>
</g>
</g>
<!-- Node0&#45;&gt;Node7 -->
<g id="edge7_Node000000_Node000007" class="edge">
<title>Node0&#45;&gt;Node7</title>
<g id="a_edge7_Node000000_Node000007"><a xlink:title=" ">
<path fill="none" stroke="#63b8ff" d="M89.21,-71.38C107.67,-66.43 128.72,-60.78 146.1,-56.12"/>
<polygon fill="#63b8ff" stroke="#63b8ff" points="88.29,-68 79.54,-73.97 90.1,-74.76 88.29,-68"/>
</a>
</g>
</g>
<!-- Node9 -->
<g id="Node000009" class="node">
<title>Node9</title>
<g id="a_Node000009"><a xlink:href="classgr_1_1ErTools_1_1PrintInt.html" target="_top" xlink:title="&lt;+description of block+&gt;">
<polygon fill="white" stroke="#666666" points="237,-19 129,-19 129,0 237,0 237,-19"/>
<text text-anchor="middle" x="183" y="-7" font-family="Helvetica,sans-Serif" font-size="10.00">gr::ErTools::PrintInt</text>
</a>
</g>
</g>
<!-- Node0&#45;&gt;Node9 -->
<g id="edge9_Node000000_Node000009" class="edge">
<title>Node0&#45;&gt;Node9</title>
<g id="a_edge9_Node000000_Node000009"><a xlink:title=" ">
<path fill="none" stroke="#63b8ff" d="M63.26,-67.37C78.43,-55.32 100.53,-39.15 122,-28.5 129.34,-24.86 137.53,-21.72 145.44,-19.1"/>
<polygon fill="#63b8ff" stroke="#63b8ff" points="60.74,-64.9 55.18,-73.92 65.15,-70.34 60.74,-64.9"/>
</a>
</g>
</g>
<!-- Node2 -->
<g id="Node000002" class="node">
<title>Node2</title>
<g id="a_Node000002"><a xlink:href="classgr_1_1ErTools_1_1BER__moje__impl.html" target="_top" xlink:title=" ">
<polygon fill="white" stroke="#666666" points="429,-167 280,-167 280,-148 429,-148 429,-167"/>
<text text-anchor="middle" x="354.5" y="-155" font-family="Helvetica,sans-Serif" font-size="10.00">gr::ErTools::BER_moje_impl</text>
</a>
</g>
</g>
<!-- Node1&#45;&gt;Node2 -->
<g id="edge2_Node000001_Node000002" class="edge">
<title>Node1&#45;&gt;Node2</title>
<g id="a_edge2_Node000001_Node000002"><a xlink:title=" ">
<path fill="none" stroke="#63b8ff" d="M254.36,-157.5C262.76,-157.5 271.36,-157.5 279.8,-157.5"/>
<polygon fill="#63b8ff" stroke="#63b8ff" points="254.24,-154 244.24,-157.5 254.24,-161 254.24,-154"/>
</a>
</g>
</g>
<!-- Node4 -->
<g id="Node000004" class="node">
<title>Node4</title>
<g id="a_Node000004"><a xlink:href="classgr_1_1ErTools_1_1BER__sync__impl.html" target="_top" xlink:title=" ">
<polygon fill="white" stroke="#666666" points="428,-130 281,-130 281,-111 428,-111 428,-130"/>
<text text-anchor="middle" x="354.5" y="-118" font-family="Helvetica,sans-Serif" font-size="10.00">gr::ErTools::BER_sync_impl</text>
</a>
</g>
</g>
<!-- Node3&#45;&gt;Node4 -->
<g id="edge4_Node000003_Node000004" class="edge">
<title>Node3&#45;&gt;Node4</title>
<g id="a_edge4_Node000003_Node000004"><a xlink:title=" ">
<path fill="none" stroke="#63b8ff" d="M253.38,-120.5C262.43,-120.5 271.72,-120.5 280.83,-120.5"/>
<polygon fill="#63b8ff" stroke="#63b8ff" points="253.28,-117 243.28,-120.5 253.28,-124 253.28,-117"/>
</a>
</g>
</g>
<!-- Node6 -->
<g id="Node000006" class="node">
<title>Node6</title>
<g id="a_Node000006"><a xlink:href="classgr_1_1ErTools_1_1PrintChar__impl.html" target="_top" xlink:title=" ">
<polygon fill="white" stroke="#666666" points="427,-93 282,-93 282,-74 427,-74 427,-93"/>
<text text-anchor="middle" x="354.5" y="-81" font-family="Helvetica,sans-Serif" font-size="10.00">gr::ErTools::PrintChar_impl</text>
</a>
</g>
</g>
<!-- Node5&#45;&gt;Node6 -->
<g id="edge6_Node000005_Node000006" class="edge">
<title>Node5&#45;&gt;Node6</title>
<g id="a_edge6_Node000005_Node000006"><a xlink:title=" ">
<path fill="none" stroke="#63b8ff" d="M252.34,-83.5C262.06,-83.5 272.09,-83.5 281.88,-83.5"/>
<polygon fill="#63b8ff" stroke="#63b8ff" points="252.33,-80 242.33,-83.5 252.33,-87 252.33,-80"/>
</a>
</g>
</g>
<!-- Node8 -->
<g id="Node000008" class="node">
<title>Node8</title>
<g id="a_Node000008"><a xlink:href="classgr_1_1ErTools_1_1PrintFloat__impl.html" target="_top" xlink:title=" ">
<polygon fill="white" stroke="#666666" points="428,-56 281,-56 281,-37 428,-37 428,-56"/>
<text text-anchor="middle" x="354.5" y="-44" font-family="Helvetica,sans-Serif" font-size="10.00">gr::ErTools::PrintFloat_impl</text>
</a>
</g>
</g>
<!-- Node7&#45;&gt;Node8 -->
<g id="edge8_Node000007_Node000008" class="edge">
<title>Node7&#45;&gt;Node8</title>
<g id="a_edge8_Node000007_Node000008"><a xlink:title=" ">
<path fill="none" stroke="#63b8ff" d="M253.38,-46.5C262.43,-46.5 271.72,-46.5 280.83,-46.5"/>
<polygon fill="#63b8ff" stroke="#63b8ff" points="253.28,-43 243.28,-46.5 253.28,-50 253.28,-43"/>
</a>
</g>
</g>
<!-- Node10 -->
<g id="Node000010" class="node">
<title>Node10</title>
<g id="a_Node000010"><a xlink:href="classgr_1_1ErTools_1_1PrintInt__impl.html" target="_top" xlink:title=" ">
<polygon fill="white" stroke="#666666" points="422,-19 287,-19 287,0 422,0 422,-19"/>
<text text-anchor="middle" x="354.5" y="-7" font-family="Helvetica,sans-Serif" font-size="10.00">gr::ErTools::PrintInt_impl</text>
</a>
</g>
</g>
<!-- Node9&#45;&gt;Node10 -->
<g id="edge10_Node000009_Node000010" class="edge">
<title>Node9&#45;&gt;Node10</title>
<g id="a_edge10_Node000009_Node000010"><a xlink:title=" ">
<path fill="none" stroke="#63b8ff" d="M247.32,-9.5C260.2,-9.5 273.79,-9.5 286.78,-9.5"/>
<polygon fill="#63b8ff" stroke="#63b8ff" points="247.17,-6 237.17,-9.5 247.17,-13 247.17,-6"/>
</a>
</g>
</g>
</g>
</svg>
