<?xml version="1.0" encoding="UTF-8" standalone="no"?>
<!DOCTYPE svg PUBLIC "-//W3C//DTD SVG 1.1//EN"
 "http://www.w3.org/Graphics/SVG/1.1/DTD/svg11.dtd">
<!-- Generated by graphviz version 2.43.0 (0)
 -->
<!-- Title: Graphical Class Hierarchy Pages: 1 -->
<svg width="475pt" height="224pt"
 viewBox="0.00 0.00 475.00 223.50" xmlns="http://www.w3.org/2000/svg" xmlns:xlink="http://www.w3.org/1999/xlink">
<g id="graph0" class="graph" transform="scale(1 1) rotate(0) translate(4 219.5)">
<title>Graphical Class Hierarchy</title>
<!-- Node0 -->
<g id="Node000000" class="node">
<title>Node0</title>
<g id="a_Node000000"><a xlink:title=" ">
<polygon fill="#e0e0e0" stroke="#999999" points="86,-122.5 0,-122.5 0,-103.5 86,-103.5 86,-122.5"/>
<text text-anchor="middle" x="43" y="-110.5" font-family="Helvetica,sans-Serif" font-size="10.00">gr::sync_block</text>
</a>
</g>
</g>
<!-- Node1 -->
<g id="Node000001" class="node">
<title>Node1</title>
<g id="a_Node000001"><a xlink:href="classgr_1_1ErTools_1_1AWGN.html" target="_top" xlink:title="&lt;+description of block+&gt;">
<polygon fill="white" stroke="#666666" points="247.5,-215.5 143.5,-215.5 143.5,-196.5 247.5,-196.5 247.5,-215.5"/>
<text text-anchor="middle" x="195.5" y="-203.5" font-family="Helvetica,sans-Serif" font-size="10.00">gr::ErTools::AWGN</text>
</a>
</g>
</g>
<!-- Node0&#45;&gt;Node1 -->
<g id="edge1_Node000000_Node000001" class="edge">
<title>Node0&#45;&gt;Node1</title>
<g id="a_edge1_Node000000_Node000001"><a xlink:title=" ">
<path fill="none" stroke="#63b8ff" d="M57.78,-130.85C72.02,-148.05 95.81,-173.54 122,-188 128.58,-191.64 135.91,-194.55 143.29,-196.88"/>
<polygon fill="#63b8ff" stroke="#63b8ff" points="60.23,-128.31 51.24,-122.71 54.78,-132.69 60.23,-128.31"/>
</a>
</g>
</g>
<!-- Node3 -->
<g id="Node000003" class="node">
<title>Node3</title>
<g id="a_Node000003"><a xlink:href="classgr_1_1ErTools_1_1AWGN__kanal.html" target="_top" xlink:title="&lt;+description of block+&gt;">
<polygon fill="white" stroke="#666666" points="263,-178.5 128,-178.5 128,-159.5 263,-159.5 263,-178.5"/>
<text text-anchor="middle" x="195.5" y="-166.5" font-family="Helvetica,sans-Serif" font-size="10.00">gr::ErTools::AWGN_kanal</text>
</a>
</g>
</g>
<!-- Node0&#45;&gt;Node3 -->
<g id="edge3_Node000000_Node000003" class="edge">
<title>Node0&#45;&gt;Node3</title>
<g id="a_edge3_Node000000_Node000003"><a xlink:title=" ">
<path fill="none" stroke="#63b8ff" d="M70,-127.37C84.89,-135.17 104.11,-144.5 122,-151 130.78,-154.19 140.35,-157.01 149.58,-159.41"/>
<polygon fill="#63b8ff" stroke="#63b8ff" points="71.37,-124.14 60.9,-122.52 68.07,-130.31 71.37,-124.14"/>
</a>
</g>
</g>
<!-- Node5 -->
<g id="Node000005" class="node">
<title>Node5</title>
<g id="a_Node000005"><a xlink:href="classgr_1_1ErTools_1_1BER.html" target="_top" xlink:title="&lt;+description of block+&gt;">
<polygon fill="white" stroke="#666666" points="241.5,-141.5 149.5,-141.5 149.5,-122.5 241.5,-122.5 241.5,-141.5"/>
<text text-anchor="middle" x="195.5" y="-129.5" font-family="Helvetica,sans-Serif" font-size="10.00">gr::ErTools::BER</text>
</a>
</g>
</g>
<!-- Node0&#45;&gt;Node5 -->
<g id="edge5_Node000000_Node000005" class="edge">
<title>Node0&#45;&gt;Node5</title>
<g id="a_edge5_Node000000_Node000005"><a xlink:title=" ">
<path fill="none" stroke="#63b8ff" d="M96.26,-119.6C113.55,-121.78 132.63,-124.19 149.34,-126.3"/>
<polygon fill="#63b8ff" stroke="#63b8ff" points="96.68,-116.12 86.32,-118.34 95.81,-123.07 96.68,-116.12"/>
</a>
</g>
</g>
<!-- Node7 -->
<g id="Node000007" class="node">
<title>Node7</title>
<g id="a_Node000007"><a xlink:href="classgr_1_1ErTools_1_1MC.html" target="_top" xlink:title="&lt;+description of block+&gt;">
<polygon fill="white" stroke="#666666" points="240,-104.5 151,-104.5 151,-85.5 240,-85.5 240,-104.5"/>
<text text-anchor="middle" x="195.5" y="-92.5" font-family="Helvetica,sans-Serif" font-size="10.00">gr::ErTools::MC</text>
</a>
</g>
</g>
<!-- Node0&#45;&gt;Node7 -->
<g id="edge7_Node000000_Node000007" class="edge">
<title>Node0&#45;&gt;Node7</title>
<g id="a_edge7_Node000000_Node000007"><a xlink:title=" ">
<path fill="none" stroke="#63b8ff" d="M96.53,-106.72C114.3,-104.59 133.93,-102.24 150.92,-100.21"/>
<polygon fill="#63b8ff" stroke="#63b8ff" points="95.84,-103.28 86.32,-107.94 96.67,-110.23 95.84,-103.28"/>
</a>
</g>
</g>
<!-- Node9 -->
<g id="Node000009" class="node">
<title>Node9</title>
<g id="a_Node000009"><a xlink:href="classgr_1_1ErTools_1_1SER.html" target="_top" xlink:title="&lt;+description of block+&gt;">
<polygon fill="white" stroke="#666666" points="241.5,-67.5 149.5,-67.5 149.5,-48.5 241.5,-48.5 241.5,-67.5"/>
<text text-anchor="middle" x="195.5" y="-55.5" font-family="Helvetica,sans-Serif" font-size="10.00">gr::ErTools::SER</text>
</a>
</g>
</g>
<!-- Node0&#45;&gt;Node9 -->
<g id="edge9_Node000000_Node000009" class="edge">
<title>Node0&#45;&gt;Node9</title>
<g id="a_edge9_Node000000_Node000009"><a xlink:title=" ">
<path fill="none" stroke="#63b8ff" d="M71.28,-98.97C86.04,-91.75 104.73,-83.2 122,-77 131.92,-73.44 142.82,-70.23 153.09,-67.51"/>
<polygon fill="#63b8ff" stroke="#63b8ff" points="69.61,-95.89 62.21,-103.48 72.73,-102.16 69.61,-95.89"/>
</a>
</g>
</g>
<!-- Node11 -->
<g id="Node000011" class="node">
<title>Node11</title>
<g id="a_Node000011"><a xlink:href="classgr_1_1ErTools_1_1Teoreticka__BER.html" target="_top" xlink:title="&lt;+description of block+&gt;">
<polygon fill="white" stroke="#666666" points="269,-27.5 122,-27.5 122,-8.5 269,-8.5 269,-27.5"/>
<text text-anchor="middle" x="195.5" y="-15.5" font-family="Helvetica,sans-Serif" font-size="10.00">gr::ErTools::Teoreticka_BER</text>
</a>
</g>
</g>
<!-- Node0&#45;&gt;Node11 -->
<g id="edge11_Node000000_Node000011" class="edge">
<title>Node0&#45;&gt;Node11</title>
<g id="a_edge11_Node000000_Node000011"><a xlink:title=" ">
<path fill="none" stroke="#63b8ff" d="M58.18,-95.34C72.58,-78.54 96.35,-53.7 122,-39 130.3,-34.24 139.76,-30.49 149.05,-27.56"/>
<polygon fill="#63b8ff" stroke="#63b8ff" points="55.27,-93.38 51.55,-103.3 60.64,-97.86 55.27,-93.38"/>
</a>
</g>
</g>
<!-- Node2 -->
<g id="Node000002" class="node">
<title>Node2</title>
<g id="a_Node000002"><a xlink:href="classgr_1_1ErTools_1_1AWGN__impl.html" target="_top" xlink:title=" ">
<polygon fill="white" stroke="#666666" points="451.5,-215.5 320.5,-215.5 320.5,-196.5 451.5,-196.5 451.5,-215.5"/>
<text text-anchor="middle" x="386" y="-203.5" font-family="Helvetica,sans-Serif" font-size="10.00">gr::ErTools::AWGN_impl</text>
</a>
</g>
</g>
<!-- Node1&#45;&gt;Node2 -->
<g id="edge2_Node000001_Node000002" class="edge">
<title>Node1&#45;&gt;Node2</title>
<g id="a_edge2_Node000001_Node000002"><a xlink:title=" ">
<path fill="none" stroke="#63b8ff" d="M257.77,-206C277.82,-206 300.15,-206 320.44,-206"/>
<polygon fill="#63b8ff" stroke="#63b8ff" points="257.51,-202.5 247.51,-206 257.51,-209.5 257.51,-202.5"/>
</a>
</g>
</g>
<!-- Node4 -->
<g id="Node000004" class="node">
<title>Node4</title>
<g id="a_Node000004"><a xlink:href="classgr_1_1ErTools_1_1AWGN__kanal__impl.html" target="_top" xlink:title=" ">
<polygon fill="white" stroke="#666666" points="467,-178.5 305,-178.5 305,-159.5 467,-159.5 467,-178.5"/>
<text text-anchor="middle" x="386" y="-166.5" font-family="Helvetica,sans-Serif" font-size="10.00">gr::ErTools::AWGN_kanal_impl</text>
</a>
</g>
</g>
<!-- Node3&#45;&gt;Node4 -->
<g id="edge4_Node000003_Node000004" class="edge">
<title>Node3&#45;&gt;Node4</title>
<g id="a_edge4_Node000003_Node000004"><a xlink:title=" ">
<path fill="none" stroke="#63b8ff" d="M273.45,-169C283.78,-169 294.41,-169 304.8,-169"/>
<polygon fill="#63b8ff" stroke="#63b8ff" points="273.22,-165.5 263.22,-169 273.22,-172.5 273.22,-165.5"/>
</a>
</g>
</g>
<!-- Node6 -->
<g id="Node000006" class="node">
<title>Node6</title>
<g id="a_Node000006"><a xlink:href="classgr_1_1ErTools_1_1BER__impl.html" target="_top" xlink:title=" ">
<polygon fill="white" stroke="#666666" points="445.5,-141.5 326.5,-141.5 326.5,-122.5 445.5,-122.5 445.5,-141.5"/>
<text text-anchor="middle" x="386" y="-129.5" font-family="Helvetica,sans-Serif" font-size="10.00">gr::ErTools::BER_impl</text>
</a>
</g>
</g>
<!-- Node5&#45;&gt;Node6 -->
<g id="edge6_Node000005_Node000006" class="edge">
<title>Node5&#45;&gt;Node6</title>
<g id="a_edge6_Node000005_Node000006"><a xlink:title=" ">
<path fill="none" stroke="#63b8ff" d="M251.77,-132C275.19,-132 302.52,-132 326.3,-132"/>
<polygon fill="#63b8ff" stroke="#63b8ff" points="251.65,-128.5 241.65,-132 251.65,-135.5 251.65,-128.5"/>
</a>
</g>
</g>
<!-- Node8 -->
<g id="Node000008" class="node">
<title>Node8</title>
<g id="a_Node000008"><a xlink:href="classgr_1_1ErTools_1_1MC__impl.html" target="_top" xlink:title=" ">
<polygon fill="white" stroke="#666666" points="444,-104.5 328,-104.5 328,-85.5 444,-85.5 444,-104.5"/>
<text text-anchor="middle" x="386" y="-92.5" font-family="Helvetica,sans-Serif" font-size="10.00">gr::ErTools::MC_impl</text>
</a>
</g>
</g>
<!-- Node7&#45;&gt;Node8 -->
<g id="edge8_Node000007_Node000008" class="edge">
<title>Node7&#45;&gt;Node8</title>
<g id="a_edge8_Node000007_Node000008"><a xlink:title=" ">
<path fill="none" stroke="#63b8ff" d="M250.33,-95C274.6,-95 303.29,-95 327.93,-95"/>
<polygon fill="#63b8ff" stroke="#63b8ff" points="250.22,-91.5 240.22,-95 250.22,-98.5 250.22,-91.5"/>
</a>
</g>
</g>
<!-- Node10 -->
<g id="Node000010" class="node">
<title>Node10</title>
<g id="a_Node000010"><a xlink:href="classgr_1_1ErTools_1_1SER__impl.html" target="_top" xlink:title=" ">
<polygon fill="white" stroke="#666666" points="445.5,-67.5 326.5,-67.5 326.5,-48.5 445.5,-48.5 445.5,-67.5"/>
<text text-anchor="middle" x="386" y="-55.5" font-family="Helvetica,sans-Serif" font-size="10.00">gr::ErTools::SER_impl</text>
</a>
</g>
</g>
<!-- Node9&#45;&gt;Node10 -->
<g id="edge10_Node000009_Node000010" class="edge">
<title>Node9&#45;&gt;Node10</title>
<g id="a_edge10_Node000009_Node000010"><a xlink:title=" ">
<path fill="none" stroke="#63b8ff" d="M251.77,-58C275.19,-58 302.52,-58 326.3,-58"/>
<polygon fill="#63b8ff" stroke="#63b8ff" points="251.65,-54.5 241.65,-58 251.65,-61.5 251.65,-54.5"/>
</a>
</g>
</g>
<!-- Node12 -->
<g id="Node000012" class="node">
<title>Node12</title>
<g id="a_Node000012"><a xlink:href="classgr_1_1ErTools_1_1Teoreticka__BER__impl.html" target="_top" xlink:title=" ">
<polygon fill="white" stroke="#666666" points="447,-30 325,-30 325,0 447,0 447,-30"/>
<text text-anchor="start" x="333" y="-18" font-family="Helvetica,sans-Serif" font-size="10.00">gr::ErTools::Teoreticka</text>
<text text-anchor="middle" x="386" y="-7" font-family="Helvetica,sans-Serif" font-size="10.00">_BER_impl</text>
</a>
</g>
</g>
<!-- Node11&#45;&gt;Node12 -->
<g id="edge12_Node000011_Node000012" class="edge">
<title>Node11&#45;&gt;Node12</title>
<g id="a_edge12_Node000011_Node000012"><a xlink:title=" ">
<path fill="none" stroke="#63b8ff" d="M279.16,-16.68C294.57,-16.44 310.39,-16.19 324.96,-15.96"/>
<polygon fill="#63b8ff" stroke="#63b8ff" points="279.05,-13.19 269.11,-16.84 279.16,-20.18 279.05,-13.19"/>
</a>
</g>
</g>
</g>
</svg>
