<?xml version="1.0" encoding="UTF-8" standalone="no"?>
<!DOCTYPE svg PUBLIC "-//W3C//DTD SVG 1.1//EN"
 "http://www.w3.org/Graphics/SVG/1.1/DTD/svg11.dtd">
<!-- Generated by graphviz version 2.43.0 (0)
 -->
<!-- Title: Graphical Class Hierarchy Pages: 1 -->
<svg width="457pt" height="175pt"
 viewBox="0.00 0.00 457.00 175.00" xmlns="http://www.w3.org/2000/svg" xmlns:xlink="http://www.w3.org/1999/xlink">
<g id="graph0" class="graph" transform="scale(1 1) rotate(0) translate(4 171)">
<title>Graphical Class Hierarchy</title>
<!-- Node0 -->
<g id="Node000000" class="node">
<title>Node0</title>
<g id="a_Node000000"><a xlink:title=" ">
<polygon fill="#e0e0e0" stroke="#999999" points="86,-93 0,-93 0,-74 86,-74 86,-93"/>
<text text-anchor="middle" x="43" y="-81" font-family="Helvetica,sans-Serif" font-size="10.00">gr::sync_block</text>
</a>
</g>
</g>
<!-- Node1 -->
<g id="Node000001" class="node">
<title>Node1</title>
<g id="a_Node000001"><a xlink:href="classgr_1_1ErTools_1_1BER__sync.html" target="_top" xlink:title="&lt;+description of block+&gt;">
<polygon fill="white" stroke="#666666" points="248,-167 128,-167 128,-148 248,-148 248,-167"/>
<text text-anchor="middle" x="188" y="-155" font-family="Helvetica,sans-Serif" font-size="10.00">gr::ErTools::BER_sync</text>
</a>
</g>
</g>
<!-- Node0&#45;&gt;Node1 -->
<g id="edge1_Node000000_Node000001" class="edge">
<title>Node0&#45;&gt;Node1</title>
<g id="a_edge1_Node000000_Node000001"><a xlink:title=" ">
<path fill="none" stroke="#63b8ff" d="M62.84,-99.95C77.93,-112.38 100.13,-129.03 122,-139.5 128.97,-142.84 136.67,-145.65 144.25,-147.99"/>
<polygon fill="#63b8ff" stroke="#63b8ff" points="64.73,-96.97 54.83,-93.2 60.22,-102.32 64.73,-96.97"/>
</a>
</g>
</g>
<!-- Node3 -->
<g id="Node000003" class="node">
<title>Node3</title>
<g id="a_Node000003"><a xlink:href="classgr_1_1ErTools_1_1BitErrorRate.html" target="_top" xlink:title="&lt;+description of block+&gt;">
<polygon fill="white" stroke="#666666" points="254,-130 122,-130 122,-111 254,-111 254,-130"/>
<text text-anchor="middle" x="188" y="-118" font-family="Helvetica,sans-Serif" font-size="10.00">gr::ErTools::BitErrorRate</text>
</a>
</g>
</g>
<!-- Node0&#45;&gt;Node3 -->
<g id="edge3_Node000000_Node000003" class="edge">
<title>Node0&#45;&gt;Node3</title>
<g id="a_edge3_Node000000_Node000003"><a xlink:title=" ">
<path fill="none" stroke="#63b8ff" d="M90.58,-95.55C109.77,-100.52 131.71,-106.19 149.8,-110.88"/>
<polygon fill="#63b8ff" stroke="#63b8ff" points="91.38,-92.14 80.83,-93.03 89.63,-98.92 91.38,-92.14"/>
</a>
</g>
</g>
<!-- Node5 -->
<g id="Node000005" class="node">
<title>Node5</title>
<g id="a_Node000005"><a xlink:href="classgr_1_1ErTools_1_1PrintChar.html" target="_top" xlink:title="&lt;+description of block+&gt;">
<polygon fill="white" stroke="#666666" points="247,-93 129,-93 129,-74 247,-74 247,-93"/>
<text text-anchor="middle" x="188" y="-81" font-family="Helvetica,sans-Serif" font-size="10.00">gr::ErTools::PrintChar</text>
</a>
</g>
</g>
<!-- Node0&#45;&gt;Node5 -->
<g id="edge5_Node000000_Node000005" class="edge">
<title>Node0&#45;&gt;Node5</title>
<g id="a_edge5_Node000000_Node000005"><a xlink:title=" ">
<path fill="none" stroke="#63b8ff" d="M96.41,-83.5C106.93,-83.5 118.04,-83.5 128.75,-83.5"/>
<polygon fill="#63b8ff" stroke="#63b8ff" points="96.13,-80 86.13,-83.5 96.13,-87 96.13,-80"/>
</a>
</g>
</g>
<!-- Node7 -->
<g id="Node000007" class="node">
<title>Node7</title>
<g id="a_Node000007"><a xlink:href="classgr_1_1ErTools_1_1PrintFloat.html" target="_top" xlink:title="&lt;+description of block+&gt;">
<polygon fill="white" stroke="#666666" points="248,-56 128,-56 128,-37 248,-37 248,-56"/>
<text text-anchor="middle" x="188" y="-44" font-family="Helvetica,sans-Serif" font-size="10.00">gr::ErTools::PrintFloat</text>
</a>
</g>
</g>
<!-- Node0&#45;&gt;Node7 -->
<g id="edge7_Node000000_Node000007" class="edge">
<title>Node0&#45;&gt;Node7</title>
<g id="a_edge7_Node000000_Node000007"><a xlink:title=" ">
<path fill="none" stroke="#63b8ff" d="M90.58,-71.45C109.77,-66.48 131.71,-60.81 149.8,-56.12"/>
<polygon fill="#63b8ff" stroke="#63b8ff" points="89.63,-68.08 80.83,-73.97 91.38,-74.86 89.63,-68.08"/>
</a>
</g>
</g>
<!-- Node9 -->
<g id="Node000009" class="node">
<title>Node9</title>
<g id="a_Node000009"><a xlink:href="classgr_1_1ErTools_1_1PrintInt.html" target="_top" xlink:title="&lt;+description of block+&gt;">
<polygon fill="white" stroke="#666666" points="242,-19 134,-19 134,0 242,0 242,-19"/>
<text text-anchor="middle" x="188" y="-7" font-family="Helvetica,sans-Serif" font-size="10.00">gr::ErTools::PrintInt</text>
</a>
</g>
</g>
<!-- Node0&#45;&gt;Node9 -->
<g id="edge9_Node000000_Node000009" class="edge">
<title>Node0&#45;&gt;Node9</title>
<g id="a_edge9_Node000000_Node000009"><a xlink:title=" ">
<path fill="none" stroke="#63b8ff" d="M63.19,-67.24C78.33,-55.11 100.42,-38.91 122,-28.5 129.73,-24.77 138.34,-21.63 146.69,-19.03"/>
<polygon fill="#63b8ff" stroke="#63b8ff" points="60.66,-64.79 55.14,-73.83 65.09,-70.2 60.66,-64.79"/>
</a>
</g>
</g>
<!-- Node2 -->
<g id="Node000002" class="node">
<title>Node2</title>
<g id="a_Node000002"><a xlink:href="classgr_1_1ErTools_1_1BER__sync__impl.html" target="_top" xlink:title=" ">
<polygon fill="white" stroke="#666666" points="443,-167 296,-167 296,-148 443,-148 443,-167"/>
<text text-anchor="middle" x="369.5" y="-155" font-family="Helvetica,sans-Serif" font-size="10.00">gr::ErTools::BER_sync_impl</text>
</a>
</g>
</g>
<!-- Node1&#45;&gt;Node2 -->
<g id="edge2_Node000001_Node000002" class="edge">
<title>Node1&#45;&gt;Node2</title>
<g id="a_edge2_Node000001_Node000002"><a xlink:title=" ">
<path fill="none" stroke="#63b8ff" d="M258.43,-157.5C270.69,-157.5 283.49,-157.5 295.84,-157.5"/>
<polygon fill="#63b8ff" stroke="#63b8ff" points="258.27,-154 248.27,-157.5 258.27,-161 258.27,-154"/>
</a>
</g>
</g>
<!-- Node4 -->
<g id="Node000004" class="node">
<title>Node4</title>
<g id="a_Node000004"><a xlink:href="classgr_1_1ErTools_1_1BitErrorRate__impl.html" target="_top" xlink:title=" ">
<polygon fill="white" stroke="#666666" points="449,-130 290,-130 290,-111 449,-111 449,-130"/>
<text text-anchor="middle" x="369.5" y="-118" font-family="Helvetica,sans-Serif" font-size="10.00">gr::ErTools::BitErrorRate_impl</text>
</a>
</g>
</g>
<!-- Node3&#45;&gt;Node4 -->
<g id="edge4_Node000003_Node000004" class="edge">
<title>Node3&#45;&gt;Node4</title>
<g id="a_edge4_Node000003_Node000004"><a xlink:title=" ">
<path fill="none" stroke="#63b8ff" d="M264.28,-120.5C272.75,-120.5 281.4,-120.5 289.91,-120.5"/>
<polygon fill="#63b8ff" stroke="#63b8ff" points="264.06,-117 254.06,-120.5 264.06,-124 264.06,-117"/>
</a>
</g>
</g>
<!-- Node6 -->
<g id="Node000006" class="node">
<title>Node6</title>
<g id="a_Node000006"><a xlink:href="classgr_1_1ErTools_1_1PrintChar__impl.html" target="_top" xlink:title=" ">
<polygon fill="white" stroke="#666666" points="442,-93 297,-93 297,-74 442,-74 442,-93"/>
<text text-anchor="middle" x="369.5" y="-81" font-family="Helvetica,sans-Serif" font-size="10.00">gr::ErTools::PrintChar_impl</text>
</a>
</g>
</g>
<!-- Node5&#45;&gt;Node6 -->
<g id="edge6_Node000005_Node000006" class="edge">
<title>Node5&#45;&gt;Node6</title>
<g id="a_edge6_Node000005_Node000006"><a xlink:title=" ">
<path fill="none" stroke="#63b8ff" d="M257.43,-83.5C270.28,-83.5 283.75,-83.5 296.7,-83.5"/>
<polygon fill="#63b8ff" stroke="#63b8ff" points="257.28,-80 247.28,-83.5 257.28,-87 257.28,-80"/>
</a>
</g>
</g>
<!-- Node8 -->
<g id="Node000008" class="node">
<title>Node8</title>
<g id="a_Node000008"><a xlink:href="classgr_1_1ErTools_1_1PrintFloat__impl.html" target="_top" xlink:title=" ">
<polygon fill="white" stroke="#666666" points="443,-56 296,-56 296,-37 443,-37 443,-56"/>
<text text-anchor="middle" x="369.5" y="-44" font-family="Helvetica,sans-Serif" font-size="10.00">gr::ErTools::PrintFloat_impl</text>
</a>
</g>
</g>
<!-- Node7&#45;&gt;Node8 -->
<g id="edge8_Node000007_Node000008" class="edge">
<title>Node7&#45;&gt;Node8</title>
<g id="a_edge8_Node000007_Node000008"><a xlink:title=" ">
<path fill="none" stroke="#63b8ff" d="M258.43,-46.5C270.69,-46.5 283.49,-46.5 295.84,-46.5"/>
<polygon fill="#63b8ff" stroke="#63b8ff" points="258.27,-43 248.27,-46.5 258.27,-50 258.27,-43"/>
</a>
</g>
</g>
<!-- Node10 -->
<g id="Node000010" class="node">
<title>Node10</title>
<g id="a_Node000010"><a xlink:href="classgr_1_1ErTools_1_1PrintInt__impl.html" target="_top" xlink:title=" ">
<polygon fill="white" stroke="#666666" points="437,-19 302,-19 302,0 437,0 437,-19"/>
<text text-anchor="middle" x="369.5" y="-7" font-family="Helvetica,sans-Serif" font-size="10.00">gr::ErTools::PrintInt_impl</text>
</a>
</g>
</g>
<!-- Node9&#45;&gt;Node10 -->
<g id="edge10_Node000009_Node000010" class="edge">
<title>Node9&#45;&gt;Node10</title>
<g id="a_edge10_Node000009_Node000010"><a xlink:title=" ">
<path fill="none" stroke="#63b8ff" d="M252.67,-9.5C268.66,-9.5 285.85,-9.5 301.97,-9.5"/>
<polygon fill="#63b8ff" stroke="#63b8ff" points="252.37,-6 242.37,-9.5 252.37,-13 252.37,-6"/>
</a>
</g>
</g>
</g>
</svg>
