<?xml version="1.0" encoding="UTF-8" standalone="no"?>
<!DOCTYPE svg PUBLIC "-//W3C//DTD SVG 1.1//EN"
 "http://www.w3.org/Graphics/SVG/1.1/DTD/svg11.dtd">
<!-- Generated by graphviz version 2.43.0 (0)
 -->
<!-- Title: Graphical Class Hierarchy Pages: 1 -->
<svg width="463pt" height="212pt"
 viewBox="0.00 0.00 463.00 212.00" xmlns="http://www.w3.org/2000/svg" xmlns:xlink="http://www.w3.org/1999/xlink">
<g id="graph0" class="graph" transform="scale(1 1) rotate(0) translate(4 208)">
<title>Graphical Class Hierarchy</title>
<!-- Node0 -->
<g id="Node000000" class="node">
<title>Node0</title>
<g id="a_Node000000"><a xlink:title=" ">
<polygon fill="#e0e0e0" stroke="#999999" points="86,-111 0,-111 0,-92 86,-92 86,-111"/>
<text text-anchor="middle" x="43" y="-99" font-family="Helvetica,sans-Serif" font-size="10.00">gr::sync_block</text>
</a>
</g>
</g>
<!-- Node1 -->
<g id="Node000001" class="node">
<title>Node1</title>
<g id="a_Node000001"><a xlink:href="classgr_1_1ErTools_1_1AWGN__kanal.html" target="_top" xlink:title="&lt;+description of block+&gt;">
<polygon fill="white" stroke="#666666" points="257,-204 122,-204 122,-185 257,-185 257,-204"/>
<text text-anchor="middle" x="189.5" y="-192" font-family="Helvetica,sans-Serif" font-size="10.00">gr::ErTools::AWGN_kanal</text>
</a>
</g>
</g>
<!-- Node0&#45;&gt;Node1 -->
<g id="edge1_Node000000_Node000001" class="edge">
<title>Node0&#45;&gt;Node1</title>
<g id="a_edge1_Node000000_Node000001"><a xlink:title=" ">
<path fill="none" stroke="#63b8ff" d="M57.85,-119.23C72.14,-136.34 95.97,-161.76 122,-176.5 128.04,-179.92 134.75,-182.71 141.53,-184.99"/>
<polygon fill="#63b8ff" stroke="#63b8ff" points="60.3,-116.7 51.28,-111.14 54.87,-121.11 60.3,-116.7"/>
</a>
</g>
</g>
<!-- Node3 -->
<g id="Node000003" class="node">
<title>Node3</title>
<g id="a_Node000003"><a xlink:href="classgr_1_1ErTools_1_1BER__sync.html" target="_top" xlink:title="&lt;+description of block+&gt;">
<polygon fill="white" stroke="#666666" points="249.5,-167 129.5,-167 129.5,-148 249.5,-148 249.5,-167"/>
<text text-anchor="middle" x="189.5" y="-155" font-family="Helvetica,sans-Serif" font-size="10.00">gr::ErTools::BER_sync</text>
</a>
</g>
</g>
<!-- Node0&#45;&gt;Node3 -->
<g id="edge3_Node000000_Node000003" class="edge">
<title>Node0&#45;&gt;Node3</title>
<g id="a_edge3_Node000000_Node000003"><a xlink:title=" ">
<path fill="none" stroke="#63b8ff" d="M70.34,-115.88C85.21,-123.6 104.3,-132.86 122,-139.5 130.4,-142.65 139.58,-145.5 148.37,-147.95"/>
<polygon fill="#63b8ff" stroke="#63b8ff" points="71.72,-112.65 61.24,-111.07 68.45,-118.84 71.72,-112.65"/>
</a>
</g>
</g>
<!-- Node5 -->
<g id="Node000005" class="node">
<title>Node5</title>
<g id="a_Node000005"><a xlink:href="classgr_1_1ErTools_1_1BitErrorRate.html" target="_top" xlink:title="&lt;+description of block+&gt;">
<polygon fill="white" stroke="#666666" points="255.5,-130 123.5,-130 123.5,-111 255.5,-111 255.5,-130"/>
<text text-anchor="middle" x="189.5" y="-118" font-family="Helvetica,sans-Serif" font-size="10.00">gr::ErTools::BitErrorRate</text>
</a>
</g>
</g>
<!-- Node0&#45;&gt;Node5 -->
<g id="edge5_Node000000_Node000005" class="edge">
<title>Node0&#45;&gt;Node5</title>
<g id="a_edge5_Node000000_Node000005"><a xlink:title=" ">
<path fill="none" stroke="#63b8ff" d="M96.29,-108.38C105.1,-109.53 114.34,-110.75 123.42,-111.94"/>
<polygon fill="#63b8ff" stroke="#63b8ff" points="96.55,-104.88 86.18,-107.05 95.64,-111.82 96.55,-104.88"/>
</a>
</g>
</g>
<!-- Node7 -->
<g id="Node000007" class="node">
<title>Node7</title>
<g id="a_Node000007"><a xlink:href="classgr_1_1ErTools_1_1PrintChar.html" target="_top" xlink:title="&lt;+description of block+&gt;">
<polygon fill="white" stroke="#666666" points="248.5,-93 130.5,-93 130.5,-74 248.5,-74 248.5,-93"/>
<text text-anchor="middle" x="189.5" y="-81" font-family="Helvetica,sans-Serif" font-size="10.00">gr::ErTools::PrintChar</text>
</a>
</g>
</g>
<!-- Node0&#45;&gt;Node7 -->
<g id="edge7_Node000000_Node000007" class="edge">
<title>Node0&#45;&gt;Node7</title>
<g id="a_edge7_Node000000_Node000007"><a xlink:title=" ">
<path fill="none" stroke="#63b8ff" d="M96.17,-95C107.29,-93.62 119.1,-92.15 130.42,-90.73"/>
<polygon fill="#63b8ff" stroke="#63b8ff" points="95.67,-91.54 86.18,-96.25 96.54,-98.48 95.67,-91.54"/>
</a>
</g>
</g>
<!-- Node9 -->
<g id="Node000009" class="node">
<title>Node9</title>
<g id="a_Node000009"><a xlink:href="classgr_1_1ErTools_1_1PrintFloat.html" target="_top" xlink:title="&lt;+description of block+&gt;">
<polygon fill="white" stroke="#666666" points="249.5,-56 129.5,-56 129.5,-37 249.5,-37 249.5,-56"/>
<text text-anchor="middle" x="189.5" y="-44" font-family="Helvetica,sans-Serif" font-size="10.00">gr::ErTools::PrintFloat</text>
</a>
</g>
</g>
<!-- Node0&#45;&gt;Node9 -->
<g id="edge9_Node000000_Node000009" class="edge">
<title>Node0&#45;&gt;Node9</title>
<g id="a_edge9_Node000000_Node000009"><a xlink:title=" ">
<path fill="none" stroke="#63b8ff" d="M71.64,-87.48C86.36,-80.33 104.91,-71.84 122,-65.5 131.34,-62.03 141.62,-58.82 151.24,-56.05"/>
<polygon fill="#63b8ff" stroke="#63b8ff" points="70,-84.39 62.57,-91.94 73.09,-90.67 70,-84.39"/>
</a>
</g>
</g>
<!-- Node11 -->
<g id="Node000011" class="node">
<title>Node11</title>
<g id="a_Node000011"><a xlink:href="classgr_1_1ErTools_1_1PrintInt.html" target="_top" xlink:title="&lt;+description of block+&gt;">
<polygon fill="white" stroke="#666666" points="243.5,-19 135.5,-19 135.5,0 243.5,0 243.5,-19"/>
<text text-anchor="middle" x="189.5" y="-7" font-family="Helvetica,sans-Serif" font-size="10.00">gr::ErTools::PrintInt</text>
</a>
</g>
</g>
<!-- Node0&#45;&gt;Node11 -->
<g id="edge11_Node000000_Node000011" class="edge">
<title>Node0&#45;&gt;Node11</title>
<g id="a_edge11_Node000000_Node000011"><a xlink:title=" ">
<path fill="none" stroke="#63b8ff" d="M58.22,-84.07C72.65,-67.48 96.44,-42.98 122,-28.5 128.79,-24.65 136.42,-21.54 144.03,-19.02"/>
<polygon fill="#63b8ff" stroke="#63b8ff" points="55.36,-82.03 51.57,-91.92 60.71,-86.55 55.36,-82.03"/>
</a>
</g>
</g>
<!-- Node2 -->
<g id="Node000002" class="node">
<title>Node2</title>
<g id="a_Node000002"><a xlink:href="classgr_1_1ErTools_1_1AWGN__kanal__impl.html" target="_top" xlink:title=" ">
<polygon fill="white" stroke="#666666" points="455,-204 293,-204 293,-185 455,-185 455,-204"/>
<text text-anchor="middle" x="374" y="-192" font-family="Helvetica,sans-Serif" font-size="10.00">gr::ErTools::AWGN_kanal_impl</text>
</a>
</g>
</g>
<!-- Node1&#45;&gt;Node2 -->
<g id="edge2_Node000001_Node000002" class="edge">
<title>Node1&#45;&gt;Node2</title>
<g id="a_edge2_Node000001_Node000002"><a xlink:title=" ">
<path fill="none" stroke="#63b8ff" d="M267.35,-194.5C275.79,-194.5 284.4,-194.5 292.88,-194.5"/>
<polygon fill="#63b8ff" stroke="#63b8ff" points="267.16,-191 257.16,-194.5 267.16,-198 267.16,-191"/>
</a>
</g>
</g>
<!-- Node4 -->
<g id="Node000004" class="node">
<title>Node4</title>
<g id="a_Node000004"><a xlink:href="classgr_1_1ErTools_1_1BER__sync__impl.html" target="_top" xlink:title=" ">
<polygon fill="white" stroke="#666666" points="447.5,-167 300.5,-167 300.5,-148 447.5,-148 447.5,-167"/>
<text text-anchor="middle" x="374" y="-155" font-family="Helvetica,sans-Serif" font-size="10.00">gr::ErTools::BER_sync_impl</text>
</a>
</g>
</g>
<!-- Node3&#45;&gt;Node4 -->
<g id="edge4_Node000003_Node000004" class="edge">
<title>Node3&#45;&gt;Node4</title>
<g id="a_edge4_Node000003_Node000004"><a xlink:title=" ">
<path fill="none" stroke="#63b8ff" d="M259.57,-157.5C272.95,-157.5 286.99,-157.5 300.47,-157.5"/>
<polygon fill="#63b8ff" stroke="#63b8ff" points="259.5,-154 249.5,-157.5 259.5,-161 259.5,-154"/>
</a>
</g>
</g>
<!-- Node6 -->
<g id="Node000006" class="node">
<title>Node6</title>
<g id="a_Node000006"><a xlink:href="classgr_1_1ErTools_1_1BitErrorRate__impl.html" target="_top" xlink:title=" ">
<polygon fill="white" stroke="#666666" points="453.5,-130 294.5,-130 294.5,-111 453.5,-111 453.5,-130"/>
<text text-anchor="middle" x="374" y="-118" font-family="Helvetica,sans-Serif" font-size="10.00">gr::ErTools::BitErrorRate_impl</text>
</a>
</g>
</g>
<!-- Node5&#45;&gt;Node6 -->
<g id="edge6_Node000005_Node000006" class="edge">
<title>Node5&#45;&gt;Node6</title>
<g id="a_edge6_Node000005_Node000006"><a xlink:title=" ">
<path fill="none" stroke="#63b8ff" d="M265.78,-120.5C275.25,-120.5 284.96,-120.5 294.49,-120.5"/>
<polygon fill="#63b8ff" stroke="#63b8ff" points="265.61,-117 255.61,-120.5 265.61,-124 265.61,-117"/>
</a>
</g>
</g>
<!-- Node8 -->
<g id="Node000008" class="node">
<title>Node8</title>
<g id="a_Node000008"><a xlink:href="classgr_1_1ErTools_1_1PrintChar__impl.html" target="_top" xlink:title=" ">
<polygon fill="white" stroke="#666666" points="446.5,-93 301.5,-93 301.5,-74 446.5,-74 446.5,-93"/>
<text text-anchor="middle" x="374" y="-81" font-family="Helvetica,sans-Serif" font-size="10.00">gr::ErTools::PrintChar_impl</text>
</a>
</g>
</g>
<!-- Node7&#45;&gt;Node8 -->
<g id="edge8_Node000007_Node000008" class="edge">
<title>Node7&#45;&gt;Node8</title>
<g id="a_edge8_Node000007_Node000008"><a xlink:title=" ">
<path fill="none" stroke="#63b8ff" d="M259.1,-83.5C272.87,-83.5 287.36,-83.5 301.23,-83.5"/>
<polygon fill="#63b8ff" stroke="#63b8ff" points="258.75,-80 248.75,-83.5 258.75,-87 258.75,-80"/>
</a>
</g>
</g>
<!-- Node10 -->
<g id="Node000010" class="node">
<title>Node10</title>
<g id="a_Node000010"><a xlink:href="classgr_1_1ErTools_1_1PrintFloat__impl.html" target="_top" xlink:title=" ">
<polygon fill="white" stroke="#666666" points="447.5,-56 300.5,-56 300.5,-37 447.5,-37 447.5,-56"/>
<text text-anchor="middle" x="374" y="-44" font-family="Helvetica,sans-Serif" font-size="10.00">gr::ErTools::PrintFloat_impl</text>
</a>
</g>
</g>
<!-- Node9&#45;&gt;Node10 -->
<g id="edge10_Node000009_Node000010" class="edge">
<title>Node9&#45;&gt;Node10</title>
<g id="a_edge10_Node000009_Node000010"><a xlink:title=" ">
<path fill="none" stroke="#63b8ff" d="M259.57,-46.5C272.95,-46.5 286.99,-46.5 300.47,-46.5"/>
<polygon fill="#63b8ff" stroke="#63b8ff" points="259.5,-43 249.5,-46.5 259.5,-50 259.5,-43"/>
</a>
</g>
</g>
<!-- Node12 -->
<g id="Node000012" class="node">
<title>Node12</title>
<g id="a_Node000012"><a xlink:href="classgr_1_1ErTools_1_1PrintInt__impl.html" target="_top" xlink:title=" ">
<polygon fill="white" stroke="#666666" points="441.5,-19 306.5,-19 306.5,0 441.5,0 441.5,-19"/>
<text text-anchor="middle" x="374" y="-7" font-family="Helvetica,sans-Serif" font-size="10.00">gr::ErTools::PrintInt_impl</text>
</a>
</g>
</g>
<!-- Node11&#45;&gt;Node12 -->
<g id="edge12_Node000011_Node000012" class="edge">
<title>Node11&#45;&gt;Node12</title>
<g id="a_edge12_Node000011_Node000012"><a xlink:title=" ">
<path fill="none" stroke="#63b8ff" d="M254.1,-9.5C270.99,-9.5 289.29,-9.5 306.35,-9.5"/>
<polygon fill="#63b8ff" stroke="#63b8ff" points="253.78,-6 243.78,-9.5 253.78,-13 253.78,-6"/>
</a>
</g>
</g>
</g>
</svg>
